<svg xmlns="http://www.w3.org/2000/svg" width="57" height="37" viewBox="0 0 57 37">
  <g id="Groupe_364" data-name="Groupe 364" transform="translate(-654.35 -365.5)">
    <path id="Tracé_1887" data-name="Tracé 1887" d="M683.45,381.08a6.757,6.757,0,0,0-1.47.12v4.7a5.179,5.179,0,0,0,1.29.13c1.89,0,3.04-.92,3.04-2.59C686.31,381.85,685.18,381.08,683.45,381.08Zm6.9,8.46a1.4,1.4,0,0,0,1.49,1.51,2.175,2.175,0,0,0,2.1-1.45,1.758,1.758,0,0,0,.09-.5v-1.51C692.3,387.55,690.35,387.86,690.35,389.54Zm0,0a1.4,1.4,0,0,0,1.49,1.51,2.175,2.175,0,0,0,2.1-1.45,1.758,1.758,0,0,0,.09-.5v-1.51C692.3,387.55,690.35,387.86,690.35,389.54Zm-6.9-8.46a6.757,6.757,0,0,0-1.47.12v4.7a5.179,5.179,0,0,0,1.29.13c1.89,0,3.04-.92,3.04-2.59C686.31,381.85,685.18,381.08,683.45,381.08Zm25.9-15.58h-53a2,2,0,0,0-2,2v33a2,2,0,0,0,2,2h53a2.006,2.006,0,0,0,2-2v-33A2.006,2.006,0,0,0,709.35,365.5ZM672.7,375c.06,2.26-1.56,3.83-3.17,3.73A3.591,3.591,0,0,1,672.7,375Zm-.26,16.97a3.17,3.17,0,0,1-1.37-.33,2.743,2.743,0,0,0-1.22-.29,3,3,0,0,0-.97.26,4.82,4.82,0,0,1-1.68.39h-.01c-2.53-.01-4.62-5.18-4.62-7.8,0-4.3,3.22-5.24,4.46-5.24a4.944,4.944,0,0,1,1.68.42,3.985,3.985,0,0,0,.96.27,3.065,3.065,0,0,0,.69-.22,5.678,5.678,0,0,1,2.08-.5h.01a4.242,4.242,0,0,1,3.56,1.8l.26.39-.37.28a3.134,3.134,0,0,0-1.51,2.6,2.939,2.939,0,0,0,1.63,2.71c.24.14.48.28.48.6C676.5,387.52,674.84,391.97,672.44,391.97Zm14.5-6.01a5.028,5.028,0,0,1-3.7,1.32,5.41,5.41,0,0,1-1.26-.1v4.84h-1.56V380.07a17.744,17.744,0,0,1,3-.23,5.005,5.005,0,0,1,3.39,1,3.284,3.284,0,0,1,1.06,2.53A3.568,3.568,0,0,1,686.94,385.96Zm7.32,6.06-.13-1.09h-.05a3.253,3.253,0,0,1-2.66,1.29,2.476,2.476,0,0,1-2.65-2.5c0-2.1,1.86-3.24,5.22-3.23v-.17a1.79,1.79,0,0,0-1.97-2.01,4.421,4.421,0,0,0-2.27.64l-.35-1.04a5.313,5.313,0,0,1,2.85-.77c2.65,0,3.3,1.81,3.3,3.55v3.25a13.092,13.092,0,0,0,.14,2.08Zm8.34-2.49c-1.13,2.98-1.9,4.5-2.98,5.43a4.209,4.209,0,0,1-1.93,1.03l-.4-1.33a4.215,4.215,0,0,0,1.38-.77,4.786,4.786,0,0,0,1.33-1.76,1.208,1.208,0,0,0,.13-.38,1.47,1.47,0,0,0-.11-.41l-3.21-8h1.72l1.9,5.13c.2.57.42,1.25.56,1.78h.04c.16-.53.34-1.19.55-1.82l1.72-5.09h1.67Zm-12.25.01a1.4,1.4,0,0,0,1.49,1.51,2.175,2.175,0,0,0,2.1-1.45,1.758,1.758,0,0,0,.09-.5v-1.51C692.3,387.55,690.35,387.86,690.35,389.54Zm-6.9-8.46a6.757,6.757,0,0,0-1.47.12v4.7a5.179,5.179,0,0,0,1.29.13c1.89,0,3.04-.92,3.04-2.59C686.31,381.85,685.18,381.08,683.45,381.08Zm0,0a6.757,6.757,0,0,0-1.47.12v4.7a5.179,5.179,0,0,0,1.29.13c1.89,0,3.04-.92,3.04-2.59C686.31,381.85,685.18,381.08,683.45,381.08Zm0,0a6.757,6.757,0,0,0-1.47.12v4.7a5.179,5.179,0,0,0,1.29.13c1.89,0,3.04-.92,3.04-2.59C686.31,381.85,685.18,381.08,683.45,381.08Z" fill="#fff"/>
  </g>
</svg>
