<svg xmlns="http://www.w3.org/2000/svg" xmlns:xlink="http://www.w3.org/1999/xlink" width="232.794" height="232.794" viewBox="0 0 232.794 232.794">
  <defs>
    <filter id="Tracé_1721" x="0" y="0" width="232.794" height="232.794" filterUnits="userSpaceOnUse">
      <feOffset dy="3" input="SourceAlpha"/>
      <feGaussianBlur stdDeviation="25" result="blur"/>
      <feFlood flood-opacity="0.059"/>
      <feComposite operator="in" in2="blur"/>
      <feComposite in="SourceGraphic"/>
    </filter>
  </defs>
  <g id="Groupe_327" data-name="Groupe 327" transform="translate(-84.1 -617.767)">
    <g transform="matrix(1, 0, 0, 1, 84.1, 617.77)" filter="url(#Tracé_1721)">
      <path id="Tracé_1721-2" data-name="Tracé 1721" d="M41.4,0A41.4,41.4,0,1,1,0,41.4,41.4,41.4,0,0,1,41.4,0Z" transform="translate(75 72)" fill="#fff"/>
    </g>
    <g id="Groupe_188" data-name="Groupe 188" transform="translate(139.48 644.63)">
      <g id="_1699645" data-name="1699645" transform="translate(33.225 20.323)">
        <path id="Tracé_1602" data-name="Tracé 1602" d="M434.649-1159.737c-2.669.032-8.333.1-12.587.143l-7.728.088-.358.39c-.2.215-.892.948-1.545,1.633a11.653,11.653,0,0,0-1.139,1.291c.024.024,1.251.008,2.733-.04s3.991-.12,5.569-.167c5.194-.152,11.767-.335,18.076-.518,2.231-.064,4.334-.12,4.684-.12a1.411,1.411,0,0,0,.621-.071c0-.072-2.589-2.342-2.94-2.573a.678.678,0,0,0-.366-.127C439.58-1159.8,437.326-1159.77,434.649-1159.737Z" transform="translate(-401.718 1159.81)" fill="#0c1229"/>
        <path id="Tracé_1603" data-name="Tracé 1603" d="M776.337-1119.792l-.837.048.024.239c.016.127.486,2.621,1.051,5.537s1.044,5.545,1.068,5.855.159,2.35.287,4.541.335,5.417.438,7.17.2,3.266.2,3.362c0,.112.048.183.128.183a21.513,21.513,0,0,0,2.366-.557,10.909,10.909,0,0,0-.016-1.561c-.048-.829-.119-2.271-.167-3.2s-.119-2.454-.159-3.386-.12-2.35-.159-3.163-.112-2.35-.167-3.425l-.088-1.952-.908-4.7c-.5-2.589-.924-4.78-.948-4.884C778.4-1119.88,778.257-1119.888,776.337-1119.792Z" transform="translate(-736.913 1123.036)" fill="#0c1229"/>
        <path id="Tracé_1604" data-name="Tracé 1604" d="M403.1-1109.167a13.914,13.914,0,0,0-1.49.087c-.024.024-.119,1.761-.207,3.864s-.215,5.074-.279,6.62c-.088,1.976-.119,4.924-.119,10.014v7.218h.223c.119-.008.789-.088,1.49-.183,1.259-.175,1.275-.183,1.3-.383.08-.653-.43-4.453-1.769-13.4l-.2-1.338,1.314-6.222c.725-3.418,1.291-6.238,1.251-6.27A12.569,12.569,0,0,0,403.1-1109.167Z" transform="translate(-392.248 1113.215)" fill="#0c1229"/>
        <path id="Tracé_1605" data-name="Tracé 1605" d="M472.41-1107.042a3.7,3.7,0,0,0-.637.788c.032.032,4.756.542,10.508,1.147l10.444,1.091.908-.175a7.983,7.983,0,0,0,.956-.223,6.115,6.115,0,0,0-1.1-.8l-1.163-.741-3.242-.311c-1.777-.167-4.023-.375-4.987-.462-5.513-.517-7.1-.661-8.684-.8-.964-.088-1.88-.183-2.023-.207C473.126-1107.776,473.079-1107.751,472.41-1107.042Z" transform="translate(-457.379 1111.895)" fill="#0c1229"/>
        <path id="Tracé_1606" data-name="Tracé 1606" d="M467.092-1082.115c-.024.056,0,1.642.048,3.506s.135,4.883.183,6.7a25.038,25.038,0,0,0,.183,3.394,3.864,3.864,0,0,0,.454.3l.358.207.462-.295.462-.287-.048-.845c-.032-.462-.088-1.776-.127-2.916-.08-2.087-.183-4.844-.311-7.99-.04-.932-.088-1.713-.111-1.737a4.413,4.413,0,0,0-.773-.1C467.267-1082.226,467.132-1082.21,467.092-1082.115Z" transform="translate(-453.065 1088.385)" fill="#0c1229"/>
        <path id="Tracé_1607" data-name="Tracé 1607" d="M739.027-1060.442a6.011,6.011,0,0,0-.741.183c-.024.016.311,1.785.733,3.92s.844,4.318.948,4.836a9.4,9.4,0,0,0,.215.964c.072.072,1.936.924,1.96.9s-.948-5.106-1.872-9.815C740.015-1060.745,740.1-1060.673,739.027-1060.442Z" transform="translate(-702.663 1068.481)" fill="#0c1229"/>
        <path id="Tracé_1608" data-name="Tracé 1608" d="M450.43-933.918c-1.155.741-2.151,1.346-2.215,1.346s-1.227-.574-2.581-1.275l-2.454-1.283-1.809,1.211c-1.545,1.028-1.832,1.195-1.976,1.123-.088-.04-.972-.534-1.96-1.083a14.12,14.12,0,0,0-1.92-.98c-.064.016-1,.614-2.087,1.322a23.954,23.954,0,0,1-2.087,1.283,13.849,13.849,0,0,1-1.569-.98c-.8-.534-1.545-1.036-1.657-1.107-.207-.136-.215-.136-.661.191-.343.255-.454.382-.454.534,0,.4.813,6.262.884,6.333a.123.123,0,0,0,.167-.008,24.122,24.122,0,0,1,3-2.159,11.5,11.5,0,0,1,1.243,1.259c.606.677,1.131,1.243,1.163,1.259a22.474,22.474,0,0,0,1.872-1.45,18.225,18.225,0,0,1,1.936-1.482c.072,0,1.179.661,2.461,1.474s2.366,1.474,2.414,1.474.884-.645,1.864-1.434a23.109,23.109,0,0,1,1.888-1.434,13.366,13.366,0,0,1,1.418,1.155c.717.637,1.331,1.155,1.354,1.155s.725-.541,1.554-1.2,1.577-1.235,1.649-1.275c.1-.056.5.247,1.984,1.522,1.02.876,1.9,1.593,1.944,1.593a3.491,3.491,0,0,0,.629-.454l.542-.462-.056-2c-.032-1.1-.08-2.366-.111-2.812l-.048-.82-1.992-.892c-1.091-.494-2.047-.916-2.119-.94A14.279,14.279,0,0,0,450.43-933.918Z" transform="translate(-416.176 953.111)"/>
        <path id="Tracé_1609" data-name="Tracé 1609" d="M846-930.689c-.653.271-.717.319-.733.534-.016.127.04,1.2.12,2.374l.136,2.151,1.856,1.179c1.02.645,1.9,1.179,1.952,1.179a17.584,17.584,0,0,0,1.577-.9,11.178,11.178,0,0,0,2.223-1.585l.733-.7.263-.924a5.123,5.123,0,0,1,.367-1.028,4.643,4.643,0,0,1,.669-.343l.558-.239.271-.884a4.459,4.459,0,0,0,.231-.924,23.852,23.852,0,0,0-2.342.605c-1.267.351-2.374.645-2.462.645s-1.163-.326-2.4-.725-2.254-.725-2.27-.725S846.4-930.857,846-930.689Z" transform="translate(-801.121 949.228)"/>
        <path id="Tracé_1610" data-name="Tracé 1610" d="M308.452-924.734c-.04.056-.271.438-.5.844a4.16,4.16,0,0,1-.59.852,6.33,6.33,0,0,1-1.036.287l-.868.175-.55,1.163a9.042,9.042,0,0,1-.637,1.211,2.685,2.685,0,0,1-.6.112c-.367.04-.5.08-.486.159a27.846,27.846,0,0,0,2.167,2.557,12.483,12.483,0,0,0,1.8-.972c.94-.558,1.761-1.02,1.824-1.036a2.676,2.676,0,0,1,.8.359l.677.4.048-.853c.032-.47.056-1.307.064-1.856l.008-1.012-.956-1.219c-.526-.677-.988-1.235-1.028-1.251A.189.189,0,0,0,308.452-924.734Z" transform="translate(-302.225 943.536)"/>
        <path id="Tracé_1611" data-name="Tracé 1611" d="M946.257-914.345c-.055.2-.159.557-.239.8l-.136.438-.637.223a3.949,3.949,0,0,0-.7.287,5.918,5.918,0,0,0-.215.964l-.151.9-.462.406c-.255.223-.558.494-.685.606l-.231.207.088,2.86c.048,1.578.143,4.716.207,6.971s.151,5.481.207,7.17c.12,4.445.2,12.914.135,15.455-.032,1.2-.088,6.294-.135,11.313s-.112,10.245-.135,11.615-.04,2.486-.016,2.486a4.111,4.111,0,0,0,.35-.733,2.118,2.118,0,0,1,1.043-1.275,3.6,3.6,0,0,0,1.394-1.617l.367-.645.088-6.8c.1-7.122.1-22.561.016-41.068C946.369-912.872,946.345-914.64,946.257-914.345Z" transform="translate(-890.885 933.928)"/>
        <path id="Tracé_1612" data-name="Tracé 1612" d="M325.166-858.646c-.821.741-1.522,1.354-1.545,1.354s-.669-.59-1.434-1.315-1.41-1.314-1.434-1.314-.829.685-1.777,1.522c-1.235,1.083-1.769,1.514-1.88,1.482-.08-.016-1.227-.685-2.549-1.482s-2.454-1.434-2.5-1.418-.836.709-1.745,1.522a20.738,20.738,0,0,1-1.761,1.482,9.84,9.84,0,0,1-1.227-1.219c-.613-.669-1.171-1.267-1.235-1.322-.1-.08-.343.064-1.585,1-.8.6-1.482,1.115-1.522,1.139s.072,1.179.223,2.557a23.742,23.742,0,0,1,.215,2.565,32.931,32.931,0,0,1-3.665.526l-.215-.024-.048-1.275c-.032-.7-.056-1.976-.064-2.828s-.032-1.745-.064-1.976c-.048-.414-.056-.422-.581-.765-.295-.191-.605-.39-.693-.43-.127-.072-.454.1-1.976.988-1,.59-1.856,1.068-1.888,1.068s-.653-.661-1.394-1.474a12.249,12.249,0,0,0-1.386-1.418c-.072.088-.231,6-.287,10.54-.032,3.37-.016,4.453.167,8.484.566,12.786.613,15.073.406,21.47-.127,4.039-.406,12.213-.51,15.256a17.487,17.487,0,0,0-.016,1.975c.032.032,1.291,0,2.8-.064,7.05-.295,13.83-.343,18.275-.12,2.557.128,9.95.406,15.694.6,10.651.35,14.85.478,14.89.43.016-.016.1-6.644.175-14.73.159-16.6.143-18.3-.335-33.5-.072-2.239-.151-5.25-.183-6.692-.04-2.4-.056-2.629-.183-2.621a14.382,14.382,0,0,0-1.45.781,11.437,11.437,0,0,1-1.45.765,15.893,15.893,0,0,1-2.717-1.466c-.6-.374-1.1-.669-1.115-.661s.048,1.187.136,2.605a12.063,12.063,0,0,1,.056,2.685,23.755,23.755,0,0,1-3.378.789c-.024-.024-.135-1.06-.239-2.295s-.207-2.27-.231-2.286a3.285,3.285,0,0,0-.685.414c-.494.335-.677.43-.781.375-.072-.04-.932-.741-1.9-1.554S326.768-860,326.728-860,325.987-859.395,325.166-858.646Z" transform="translate(-291.136 883.885)" fill="#202020"/>
      </g>
      <rect id="Rectangle_41" data-name="Rectangle 41" width="26.026" height="4.338" rx="2.169" transform="matrix(1, 0.017, -0.017, 1, 40.521, 92.252)" fill="#e96328"/>
    </g>
  </g>
</svg>
