<svg xmlns="http://www.w3.org/2000/svg" width="32.818" height="27.112" viewBox="0 0 32.818 27.112">
  <g id="Groupe_331" data-name="Groupe 331" transform="translate(65.996 -32.917)">
    <path id="Tracé_1780" data-name="Tracé 1780" d="M-66,33.352a1.078,1.078,0,0,1,.948-.435c1.983,0,3.966,0,5.949,0a.893.893,0,0,1,1.052.878c.357,1.957.7,3.915,1.054,5.873q.754,4.2,1.51,8.4c.184,1.021.374,2.04.547,3.063a1.377,1.377,0,0,0,1.553,1.317h15.275c.967,0,1.37-.319,1.553-1.258.228-1.165.44-2.333.657-3.5a1.123,1.123,0,0,0,0-.188h-.388q-4.133,0-8.264,0a.826.826,0,0,1-.94-.823.765.765,0,0,1,.627-.781,2.415,2.415,0,0,1,.509-.051q4.181,0,8.361,0c.288,0,.4-.065.446-.373q.3-1.867.676-3.724a1.628,1.628,0,0,0-1.541-1.971c-.139-.012-.279-.006-.418-.006q-6.047,0-12.092,0a1.979,1.979,0,0,1-.569-.072.8.8,0,0,1-.542-.762.8.8,0,0,1,.577-.765,1.825,1.825,0,0,1,.506-.058c4.031,0,8.063.055,12.091-.027a3.565,3.565,0,0,1,3.591,4.4c-.613,3.039-1.156,6.092-1.721,9.141a3.115,3.115,0,0,1-2.242,2.56,3.819,3.819,0,0,1,.362,3.523,3.544,3.544,0,0,1-1.458,1.747,3.721,3.721,0,0,1-4.446-.363c-1.348-1.183-1.564-2.794-.633-4.814h-4.94a3.663,3.663,0,0,1,.423,3.258,3.561,3.561,0,0,1-1.419,1.853,3.715,3.715,0,0,1-4.48-.242A3.6,3.6,0,0,1-55.1,56.778a3.675,3.675,0,0,1,.7-2.593,3.357,3.357,0,0,1-1.45-.959,3.636,3.636,0,0,1-.686-1.805q-.949-5.273-1.907-10.543Q-59,37.8-59.557,34.723c-.007-.04-.02-.079-.036-.145h-.353c-1.683,0-3.366-.008-5.049.007a1.236,1.236,0,0,1-1-.4Zm27.813,22.9a2.017,2.017,0,0,0-2.006-2.064,2.02,2.02,0,0,0-2.077,1.995,2.025,2.025,0,0,0,2.04,2.1A2.02,2.02,0,0,0-38.183,56.253Zm-11.2-.028a2.016,2.016,0,0,0-2.034-2.036,2.017,2.017,0,0,0-2.048,2.055,2.021,2.021,0,0,0,2.035,2.039A2.023,2.023,0,0,0-49.381,56.225Z" fill="#202020"/>
  </g>
</svg>
