<svg xmlns="http://www.w3.org/2000/svg" width="46.278" height="49.749" viewBox="0 0 46.278 49.749">
  <g id="Groupe_339" data-name="Groupe 339" transform="translate(-226 -442)">
    <g id="Groupe_338" data-name="Groupe 338" transform="translate(176.496 203.908)">
      <path id="Tracé_1788" data-name="Tracé 1788" d="M93.128,248.1c-3.474-2.639-7.8-4.537-11.733-6.389a31.4,31.4,0,0,0-9.821-3.109c-2.041-.239-7.315-1.118-9.09.17-1.447,1.049-2.1,3.785-2.942,5.29-1.9,3.386-3.256,6.626-4.842,10.189-1.505,3.383-3.207,6.685-4.545,10.141-1.233,3.187-.363,6.894-.211,10.269a.717.717,0,0,0,.514.675c2.916.63,2.112,4.6-.092,5.555a.679.679,0,0,0-.347.605c.2,2.854-.4,7.146,3.69,6.209,3.468-.795,6.848-2.276,10.327-3.143,2.734-.682,5.456-1.408,8.181-2.123,4.795-1.257,9.594-2.411,14.335-3.862,2.788-.854,8.08-1.262,8.728-4.641a.693.693,0,0,0,.06-.3c-.061-3.755-.113-7.495.105-11.246a.7.7,0,0,0-.514-.675c-3.492-.638-2.617-4.683.267-5.385a.711.711,0,0,0,.514-.675C95.783,251.833,96.279,250.5,93.128,248.1Zm-31.37-5.477c.356-.682.785-1.97,1.412-2.411a4.869,4.869,0,0,1,2.56-.4A28.855,28.855,0,0,1,76.687,241.2a84.962,84.962,0,0,1,11.147,5.367c1.946,1.038,4.653,2.272,5.958,4.185a.656.656,0,0,0-.16.035c-4.2,1.842-8.33,3.841-12.545,5.657-2.268-3.215-8.362-2.08-9.979,1.215a13.1,13.1,0,0,1-.506,1.6c-.371.5.021-.032-.452.271-1.651,1.058-4.2,1.456-6.041,2.151-4.145,1.562-8.41,2.878-12.673,4.09a33.516,33.516,0,0,1,2.6-6.745C56.6,253.492,58.956,248.008,61.758,242.628ZM80.082,257.48a4.89,4.89,0,0,1-3.855,3.875c-1.8.338-3.1-.542-4.251-1.764C72.477,256.253,78.233,254.365,80.082,257.48Zm11.692-.662a3.8,3.8,0,0,0,.076,4.765c.52.613,1.177.7,1.74,1.194a2.714,2.714,0,0,0,.431.327,1.091,1.091,0,0,0-.051.649c.307,3.194-.082,6.668-.03,9.886-.22,2.15-6.146,3.1-7.76,3.593-2.069.633-4.143,1.274-6.237,1.82q-8.125,2.121-16.279,4.165c-1.573.392-3.159.743-4.711,1.214-1.325.4-3.632,1.8-5.04,1.74-2.189-.085-2.163-1.8-2.4-3.27-.006-.036-.07-.505-.089-.856a2.151,2.151,0,0,0,.253-.275c1.627-1.99,3.521-5.017.646-7.112-.262-.19-.773-.293-.955-.513-.413-.5.052.079-.056-.192-.414-1.041-.122-2.8-.2-3.938a14.758,14.758,0,0,1,.071-2.721,181.382,181.382,0,0,0,19.871-6.652c1.688,1.743,3.752,2.749,6.241,1.9a6.37,6.37,0,0,0,4.137-4.733c4.342-1.856,8.582-3.92,12.906-5.815.018-.008.025-.021.041-.029a4.3,4.3,0,0,1-.046,2.572,4.083,4.083,0,0,0-.167.677c-.295.119-.692.273-.69.271A8.519,8.519,0,0,0,91.774,256.818Z" fill="#333"/>
      <path id="Tracé_1789" data-name="Tracé 1789" d="M66.807,249.41a11.413,11.413,0,0,0,4.018-1.3c.869-.436,2.115-.988,2.361-2.046.551-2.367-2.422-3.051-4.06-3.19-2.16-.1-5.163.465-5.96,2.828C62.361,248.089,64.668,249.6,66.807,249.41Zm-1.366-4.386a6.085,6.085,0,0,1,3.685-.753c1.21.1,3.672.617,1.8,2.193a8.713,8.713,0,0,1-3.492,1.437,2.885,2.885,0,0,1-2.221-.149C64.1,247.019,64.474,245.68,65.441,245.024Z" fill="#333"/>
      <path id="Tracé_1790" data-name="Tracé 1790" d="M61,259.089a7.878,7.878,0,0,0,2.811-.9c.658-.331,1.524-.743,1.693-1.54.369-1.747-1.688-2.293-2.949-2.4-1.553-.074-3.663.373-4.218,2.065C57.766,258.056,59.411,259.227,61,259.089Zm-.8-2.972a3.846,3.846,0,0,1,2.354-.473c.641.054,2.023.23,1.091,1.04a5.594,5.594,0,0,1-2.286.94,1.709,1.709,0,0,1-1.315-.07C59.453,257.144,59.688,256.473,60.2,256.117Z" fill="#333"/>
      <path id="Tracé_1791" data-name="Tracé 1791" d="M81.251,252.689c1.511-.134,4.931-1.088,5.325-2.842.453-2.018-2.012-2.624-3.435-2.746-1.818-.086-4.322.413-4.981,2.4C77.487,251.529,79.419,252.851,81.251,252.689ZM80.2,249.1a4.829,4.829,0,0,1,2.937-.6c.893.076,2.741.395,1.4,1.545a6.925,6.925,0,0,1-2.814,1.158,2.226,2.226,0,0,1-1.711-.1C79.194,250.548,79.491,249.584,80.2,249.1Z" fill="#333"/>
      <path id="Tracé_1792" data-name="Tracé 1792" d="M83.363,267.106c-2.266.209-4.812,1.829-4.863,4.324s2.31,4.3,4.628,4.453a4.2,4.2,0,0,0,4.312-3.736,4.968,4.968,0,0,0-1.075-3.685A3.577,3.577,0,0,0,83.363,267.106Zm-.338,7.357c-1.512-.184-3.19-1.335-3.125-3.033.063-1.653,1.964-2.785,3.463-2.924C87.143,268.731,86.732,274.915,83.025,274.463Z" fill="#333"/>
      <path id="Tracé_1793" data-name="Tracé 1793" d="M63.7,267.624c-.028,0-.046.015-.072.019a.633.633,0,0,0-.114.006c-2.019.511-4.019,2.168-3.4,4.442.48,1.76,2.481,3.658,4.433,3.082a4.621,4.621,0,0,0,2.8-4.759A3.359,3.359,0,0,0,63.7,267.624Zm.971,5.855c-1.12.921-2.5-.221-3.028-1.289-.794-1.618.738-2.778,2.166-3.167a2.027,2.027,0,0,1,2.041,1.19A3.029,3.029,0,0,1,64.672,273.479Z" fill="#333"/>
    </g>
  </g>
</svg>
