<svg xmlns="http://www.w3.org/2000/svg" width="21.998" height="18.739" viewBox="0 0 21.998 18.739">
  <g id="Groupe_329" data-name="Groupe 329" transform="translate(-266.001 -81.63)">
    <g id="Groupe_196" data-name="Groupe 196" transform="translate(170.609 -75.883)">
      <path id="Tracé_1715" data-name="Tracé 1715" d="M113.56,168.23l-6.21,6.22a2.77,2.77,0,0,1-3.9,0l-6.21-6.22a6.27,6.27,0,0,1,8.16-9.48,6.273,6.273,0,0,1,8.16,9.48Z" fill="#202020"/>
    </g>
    <g id="Groupe_206" data-name="Groupe 206" transform="translate(172.609 -74.883)" opacity="0.264">
      <path id="Tracé_1715-2" data-name="Tracé 1715" d="M113.56,168.23l-6.21,6.22a2.77,2.77,0,0,1-3.9,0l-6.21-6.22a6.27,6.27,0,0,1,8.16-9.48,6.273,6.273,0,0,1,8.16,9.48Z" fill="#17233d"/>
    </g>
  </g>
</svg>
