<svg id="instagram_2_" data-name="instagram (2)" xmlns="http://www.w3.org/2000/svg" width="17.179" height="17.183" viewBox="0 0 17.179 17.183">
  <path id="Tracé_1502" data-name="Tracé 1502" d="M17.585,5.052a6.279,6.279,0,0,0-.4-2.085A4.4,4.4,0,0,0,14.671.453a6.3,6.3,0,0,0-2.084-.4C11.667.01,11.375,0,9.042,0S6.417.01,5.5.05a6.28,6.28,0,0,0-2.084.4,4.192,4.192,0,0,0-1.524.994A4.23,4.23,0,0,0,.9,2.964,6.3,6.3,0,0,0,.5,5.048C.459,5.968.449,6.26.449,8.593s.01,2.625.05,3.541a6.278,6.278,0,0,0,.4,2.085,4.4,4.4,0,0,0,2.514,2.514,6.3,6.3,0,0,0,2.085.4c.916.04,1.208.05,3.541.05s2.625-.01,3.541-.05a6.277,6.277,0,0,0,2.084-.4,4.395,4.395,0,0,0,2.514-2.514,6.3,6.3,0,0,0,.4-2.085c.04-.916.05-1.208.05-3.541S17.625,5.968,17.585,5.052Zm-1.547,7.015a4.71,4.71,0,0,1-.3,1.594,2.85,2.85,0,0,1-1.631,1.631,4.726,4.726,0,0,1-1.594.3c-.906.04-1.178.05-3.471.05s-2.568-.01-3.471-.05a4.707,4.707,0,0,1-1.594-.3,2.644,2.644,0,0,1-.987-.641,2.671,2.671,0,0,1-.641-.987,4.727,4.727,0,0,1-.3-1.594c-.04-.906-.05-1.178-.05-3.471s.01-2.568.05-3.471a4.707,4.707,0,0,1,.3-1.594A2.612,2.612,0,0,1,3,2.548a2.667,2.667,0,0,1,.987-.641,4.73,4.73,0,0,1,1.594-.3c.906-.04,1.178-.05,3.471-.05s2.568.01,3.471.05a4.71,4.71,0,0,1,1.594.3,2.642,2.642,0,0,1,.987.641,2.671,2.671,0,0,1,.641.987,4.729,4.729,0,0,1,.3,1.594c.04.906.05,1.178.05,3.471S16.078,11.161,16.037,12.067Zm0,0" transform="translate(-0.449 0)" fill="#fff"/>
  <path id="Tracé_1503" data-name="Tracé 1503" d="M129.363,124.5a4.414,4.414,0,1,0,4.414,4.414A4.415,4.415,0,0,0,129.363,124.5Zm0,7.277a2.863,2.863,0,1,1,2.863-2.863A2.864,2.864,0,0,1,129.363,131.777Zm0,0" transform="translate(-120.77 -120.321)" fill="#fff"/>
  <path id="Tracé_1504" data-name="Tracé 1504" d="M364.51,89.632a1.031,1.031,0,1,1-1.031-1.03A1.031,1.031,0,0,1,364.51,89.632Zm0,0" transform="translate(-350.298 -85.628)" fill="#fff"/>
</svg>
