<svg xmlns="http://www.w3.org/2000/svg" xmlns:xlink="http://www.w3.org/1999/xlink" width="236.39" height="236.39" viewBox="0 0 236.39 236.39">
  <defs>
    <filter id="Tracé_1727" x="0" y="0" width="236.39" height="236.39" filterUnits="userSpaceOnUse">
      <feOffset dy="3" input="SourceAlpha"/>
      <feGaussianBlur stdDeviation="25" result="blur"/>
      <feFlood flood-opacity="0.059"/>
      <feComposite operator="in" in2="blur"/>
      <feComposite in="SourceGraphic"/>
    </filter>
    <clipPath id="clip-path">
      <rect id="Rectangle_40" data-name="Rectangle 40" width="104.634" height="63.721" fill="#202020"/>
    </clipPath>
  </defs>
  <g id="Groupe_322" data-name="Groupe 322" transform="translate(-69.877 -580.63)">
    <g transform="matrix(1, 0, 0, 1, 69.88, 580.63)" filter="url(#Tracé_1727)">
      <path id="Tracé_1727-2" data-name="Tracé 1727" d="M43.2,0A43.2,43.2,0,1,1,0,43.2,43.2,43.2,0,0,1,43.2,0Z" transform="translate(75 72)" fill="#fff"/>
    </g>
    <g id="Groupe_215" data-name="Groupe 215" transform="translate(122.688 633.577)">
      <g id="Groupe_52" data-name="Groupe 52" transform="translate(13.067 25.054)">
        <g id="Groupe_51" data-name="Groupe 51" clip-path="url(#clip-path)">
          <path id="Tracé_1613" data-name="Tracé 1613" d="M104.53,46.665a1.662,1.662,0,0,0-.18-1.509,14.954,14.954,0,0,0-12.41-6.6c-.132,0-.264,0-.4.006V36.6a1.959,1.959,0,0,0-1.61-1.928l-3.227-.586L83.374,20.635a1.959,1.959,0,0,0-.876-1.2l-1.146-.7c.173-.113.342-.231.5-.36a1.959,1.959,0,0,0,.739-1.533V9.921a1.96,1.96,0,0,0-.036-.371l-.174-.9a1.961,1.961,0,0,0-.754-1.2,6.773,6.773,0,0,0-5.279-1.208,6.686,6.686,0,0,0-4.264,2.8l-9.466,1.008a2.939,2.939,0,0,0,.308,5.862,3,3,0,0,0,.315-.017l8.01-.853a6.676,6.676,0,0,0,1.4,2.512c0,.007,0,.014.007.021,2.326,5.349,7.494,20.55,3.543,26.575-1.127,1.72-2.993,2.555-5.7,2.555H59.539a8.137,8.137,0,0,1-7.2-3.673c-1.4-2.441-1.069-5.685.945-9.417a1.958,1.958,0,0,0,.99-1.7V21.923a1.959,1.959,0,0,0-1.959-1.959h-33.8a1.96,1.96,0,0,0-1.959,1.959v8.491C12.571,31.869,5.349,36.052.165,47.881A1.958,1.958,0,0,0,0,48.666v3.79a1.96,1.96,0,0,0,1.959,1.959H4.913a13.288,13.288,0,0,0,26.558,0H77.542a13.29,13.29,0,1,0,25.122-6.521l.745-.2a1.661,1.661,0,0,0,1.121-1.026M23.03,35.543h8.41a1.127,1.127,0,0,1,0,2.253H23.03a1.127,1.127,0,0,1,0-2.253M18.193,59.08a5.159,5.159,0,0,1-5.13-4.664H23.322a5.16,5.16,0,0,1-5.13,4.664m13.248-13.1H23.03a1.127,1.127,0,1,1,0-2.253h8.41a1.127,1.127,0,1,1,0,2.253m3.792-4.093h-16a1.126,1.126,0,1,1,0-2.253h16a1.126,1.126,0,1,1,0,2.253M90.822,59.08a5.152,5.152,0,0,1-4.949-6.59l8.473-2.318a5.15,5.15,0,0,1-3.524,8.909" transform="translate(0 -3.495)" fill="#202020"/>
          <path id="Tracé_1614" data-name="Tracé 1614" d="M59.881,14.013H40.554a1.442,1.442,0,0,1-1.442-1.442V1.442A1.442,1.442,0,0,1,40.554,0H59.881a1.442,1.442,0,0,1,1.442,1.442V12.571a1.442,1.442,0,0,1-1.442,1.442" transform="translate(-22.327 0)" fill="#e96328"/>
        </g>
      </g>
    </g>
  </g>
</svg>
