<svg xmlns="http://www.w3.org/2000/svg" xmlns:xlink="http://www.w3.org/1999/xlink" width="361.199" height="303.426" viewBox="0 0 361.199 303.426">
  <defs>
    <clipPath id="clip-path">
      <rect id="Rectangle_402" data-name="Rectangle 402" width="361.199" height="303.426" fill="none"/>
    </clipPath>
  </defs>
  <g id="Groupe_290" data-name="Groupe 290" transform="translate(7167.765 922.394)">
    <rect id="Rectangle_427" data-name="Rectangle 427" width="232" height="67" transform="translate(-7108 -793)" fill="#fff"/>
    <rect id="Rectangle_428" data-name="Rectangle 428" width="22" height="37" transform="translate(-6885 -796)" fill="#fff"/>
    <g id="Groupe_255" data-name="Groupe 255" transform="translate(-7174.216 -922.394)">
      <g id="Groupe_254" data-name="Groupe 254" transform="translate(6.451)" clip-path="url(#clip-path)">
        <path id="Tracé_1735" data-name="Tracé 1735" d="M301.751,104.174l-1.622-3.585c-6.122-13.4-22.061-52.085-22.366-69.927l-.11-5.9-5.061-1.549C261.581,19.821,175.63,5.358,155.728,4.577l-.232-.012-.268.012c-19.89.78-105.841,15.244-116.841,18.634L33.313,24.76l-.11,5.9c-.3,17.78-16.244,56.512-22.354,69.927l-1.634,3.585h0l1.634,3.585C16.96,121.186,32.9,159.918,33.2,177.7l.11,5.89,5.073,1.561c11,3.378,96.951,17.854,116.841,18.634l.268.012.232-.012c19.9-.78,105.853-15.256,116.865-18.634l5.061-1.561.11-5.89c.3-17.841,16.244-56.524,22.366-69.939Zm-27.512,73.451-.049,2.951-2.524.78c-10.927,3.341-96.28,17.707-116.061,18.488l-.11.012-.134-.012c-19.768-.78-105.134-15.146-116.048-18.488l-2.537-.78-.049-2.951c-.3-17.463-13.951-51.219-19.963-65.268-1.659-3.89-2.744-6.28-2.793-6.39l-.817-1.793.817-1.793c.049-.11,1.134-2.476,2.793-6.378,6.012-14.049,19.658-47.8,19.963-65.268l.049-2.951L39.313,27C50.228,23.65,135.594,9.3,155.362,8.516L155.5,8.5l.11.012C175.386,9.3,260.739,23.65,271.666,27l2.524.78.049,2.951C274.556,48.187,288.2,81.955,294.215,96H294.2c1.659,3.9,2.744,6.268,2.793,6.378l.817,1.793L297,105.967c-.049.11-1.134,2.5-2.793,6.39h.012c-6.012,14.049-19.658,47.817-19.976,65.268" transform="translate(24.509 51.106)" fill="#e34b1b"/>
        <path id="Tracé_1736" data-name="Tracé 1736" d="M16.233,18.027h2.506L17.488,15.1Z" transform="translate(103.059 169.029)" fill="#e34b1b"/>
        <path id="Tracé_1737" data-name="Tracé 1737" d="M20.218,18.027h2.5L21.466,15.1Z" transform="translate(147.681 169.029)" fill="#e34b1b"/>
        <path id="Tracé_1738" data-name="Tracé 1738" d="M24.713,15.081a2.348,2.348,0,0,0-2.39,2.317,2.379,2.379,0,0,0,2.39,2.354,2.336,2.336,0,1,0,0-4.671" transform="translate(171.243 168.833)" fill="#e34b1b"/>
        <path id="Tracé_1739" data-name="Tracé 1739" d="M31.267,22.959a6.124,6.124,0,0,0,3.244-3.232,6.029,6.029,0,0,0,.476-2.366A5.9,5.9,0,0,0,34.51,15a6.1,6.1,0,0,0-1.3-1.939,6.241,6.241,0,0,0-1.939-1.3,5.942,5.942,0,0,0-2.366-.476h-6.11V23.434H28.9a5.942,5.942,0,0,0,2.366-.476" transform="translate(176.482 126.236)" fill="#e34b1b"/>
        <path id="Tracé_1740" data-name="Tracé 1740" d="M41.849,14.07a9.779,9.779,0,0,0-3.085-2.061,9.685,9.685,0,0,0-7.561,0,9.578,9.578,0,0,0-5.171,5.134,9.323,9.323,0,0,0-.768,3.756,9.182,9.182,0,0,0,.768,3.744A10.055,10.055,0,0,0,28.105,27.7a9.8,9.8,0,0,0,3.1,2.073,9.829,9.829,0,0,0,7.561,0A9.61,9.61,0,0,0,41.849,27.7a10.055,10.055,0,0,0,2.073-3.061,9.182,9.182,0,0,0,.768-3.744,9.324,9.324,0,0,0-.768-3.756,9.965,9.965,0,0,0-2.073-3.073" transform="translate(204.168 125.844)" fill="#e34b1b"/>
        <path id="Tracé_1741" data-name="Tracé 1741" d="M12.99,18.027h2.5L14.243,15.1Z" transform="translate(66.761 169.029)" fill="#e34b1b"/>
        <path id="Tracé_1742" data-name="Tracé 1742" d="M28.643,22.959a6.1,6.1,0,0,0,1.939-1.3,6.089,6.089,0,0,0,1.793-4.293,6.148,6.148,0,0,0-1.793-4.3,6.1,6.1,0,0,0-1.939-1.3,5.884,5.884,0,0,0-2.354-.476H20.18V23.434h6.11a5.883,5.883,0,0,0,2.354-.476" transform="translate(147.252 126.236)" fill="#e34b1b"/>
        <path id="Tracé_1743" data-name="Tracé 1743" d="M14,19.984a1.35,1.35,0,0,0,1.646.9c1.951-.707,2.39-3.061,2.146-8.2C15.142,15.057,13.3,18.069,14,19.984" transform="translate(76.363 142.077)" fill="#e34b1b"/>
        <path id="Tracé_1744" data-name="Tracé 1744" d="M19.954,17.782a2.848,2.848,0,0,0-5.7,0,2.848,2.848,0,0,0,5.7,0" transform="translate(80.966 167.803)" fill="#e34b1b"/>
        <path id="Tracé_1745" data-name="Tracé 1745" d="M30.353,15.083H28.78v2.61h1.573c1.024,0,1.61-.439,1.61-1.329,0-.866-.585-1.28-1.61-1.28" transform="translate(243.529 168.855)" fill="#e34b1b"/>
        <path id="Tracé_1746" data-name="Tracé 1746" d="M263.5,23.577c-11.439-3.512-96.024-17.61-115.243-18.366C129.009,5.967,44.436,20.065,32.985,23.577c-.4,23.476-23.122,73.366-23.122,73.366s22.719,49.9,23.122,73.378c11.451,3.5,96.024,17.6,115.268,18.366,19.219-.768,103.8-14.866,115.243-18.366.4-23.476,23.134-73.378,23.134-73.378S263.9,47.052,263.5,23.577M161.423,73.089h12.207a11.9,11.9,0,0,1,3.244.439,11.555,11.555,0,0,1,2.9,1.232,11.984,11.984,0,0,1,2.463,1.9,11.8,11.8,0,0,1,1.915,2.476,11.471,11.471,0,0,1,1.232,2.89,11.815,11.815,0,0,1,.439,3.232,11.614,11.614,0,0,1-.39,3.049,12.184,12.184,0,0,1-1.134,2.8,11.369,11.369,0,0,1-1.793,2.463,12.594,12.594,0,0,1-2.378,1.951l3.378,7.951h-6.488l-2.659-6.134-6.841.049v6.085h-6.1Zm-31.854,0h12.219a11.815,11.815,0,0,1,3.232.439,11.554,11.554,0,0,1,2.9,1.232,12.392,12.392,0,0,1,2.476,1.9,12.664,12.664,0,0,1,1.915,2.476,12.43,12.43,0,0,1,1.232,2.89,12.3,12.3,0,0,1,.427,3.232,11.616,11.616,0,0,1-.39,3.049,12.718,12.718,0,0,1-1.122,2.8,11.844,11.844,0,0,1-1.8,2.463,12.221,12.221,0,0,1-2.378,1.951l3.378,7.951h-6.488l-2.659-6.134-6.829.049v6.085h-6.11ZM41.619,131.2h-4.78v-7.915H38.18v6.707h3.439Zm9.951,0-.646-1.476H47.582l-.634,1.476H45.778l2.939-6.6h1.134l2.9,6.6Zm5.256-26.415c-1.28-3.488,2.146-7.78,5.451-10.537-.061-.683-.11-1.354-.171-2.11-.585,1.78-1.524,3.171-2.939,3.683a2.551,2.551,0,0,1-3.4-1.354c-.927,1.878-2.061,3.366-3.537,3.89-1.549.573-3.488.415-4.037-2.317L45.436,82.662l-.89,16.61a2.455,2.455,0,0,1-1.793,2.524,2.674,2.674,0,0,1-1.488.134L37.729,89.113l-1.061-3.341c.622,13.488-.89,18.561-4.244,19.768-1.415.524-2.927-.463-3.841-2.963-.585-1.634.366-2.524,1.634-2.976a2.437,2.437,0,0,1,1.585-.037,7.871,7.871,0,0,0,.463,3.11l.1.244c1.915-1.646,3.5-6.134,2.61-21.341l-.134.049c-2.573.939-2.976,2.707-2.5,4.024A2.8,2.8,0,0,0,33.5,87.077a2.719,2.719,0,0,1-1.11.72,2.585,2.585,0,0,1-3.256-1.841c-.646-1.768-.037-4.28,3.293-5.488,2.341-.841,5.2-.476,6.159-1.6a.865.865,0,0,1,.671.6,1.093,1.093,0,0,1-.6,1.451h-.024l4.451,15.317,1.171-17.061a2.667,2.667,0,0,1,1.78-2.683,3.584,3.584,0,0,1,1.683-.2l3.6,17.024c.378,1.732.927,2.012,1.7,1.744a5.557,5.557,0,0,0,2.146-2.11,11.758,11.758,0,0,1-.341-1.634l-.781-6.244c-.061-.488-.28-.7-.537-.6-.146.049-.268.22-.439.549a1.093,1.093,0,0,1-.573-1.549,5.41,5.41,0,0,1,2.671-2.5c1.024-.366,1.756-.1,1.927,1.049l1.2,8.732c.122.951.6,1.537,1.524,1.2a3.291,3.291,0,0,0,1.8-1.793l-1.232-9.073a2.377,2.377,0,0,1,1.72-2.622,2.572,2.572,0,0,1,1.463-.122l1.671,12c.061.512.134,1.061.207,1.61a7.59,7.59,0,0,1,1.146-.537c1.146-.427,2.073.524,2.1,1.744a10.227,10.227,0,0,0-2.988.988c.524,5.476.207,11.256-4.561,12.976-1.573.585-3.451,0-4.3-2.341m12.024,28.171a3.034,3.034,0,0,1-2.537-1.7,4.012,4.012,0,1,1,4.232-4.012,3.988,3.988,0,0,1-2.866,3.817,1.922,1.922,0,0,0,1.329.732,2.6,2.6,0,0,0,1.463-.659l.537.939a3.46,3.46,0,0,1-2.159.878m12.671-4.488a2.886,2.886,0,0,1-5.768,0V124.6h1.11v3.866a1.774,1.774,0,1,0,3.549,0V124.6h1.11Zm9.585,2.732-.634-1.476H87.131L86.5,131.2H85.326l2.927-6.6H89.4l2.9,6.6Zm3.146-52.024H85.107v24.3H79.021v-24.3H69.851V73.089h24.4Zm6.171,52.024H96.436v-6.6h1.122v5.6h2.866Zm.512-58.11H121.85v6.085H107.033v6.085H117.07v6.073H107.033v6.061H121.85v6.085H100.936Zm4.939,58.11h-1.122v-6.6h1.122Zm9.524-5.61h-2.11v5.61h-1.11v-5.61h-2.1V124.6H115.4Zm9.061,5.61h-4.854v-6.6h4.744v.988h-3.622v1.793h3.244v1.012h-3.244v1.817h3.732Zm15.244,0-.634-1.476h-3.341l-.634,1.476h-1.171l2.927-6.6H138l2.9,6.6Zm-12.146-17.646h47.914v1.878H127.558Zm28.78,10.939h-2.524V131.2h-1.329v-6.707h-2.512v-1.207h6.366Zm7.866,6.756a3.346,3.346,0,1,1,3.512-3.341,3.383,3.383,0,0,1-3.512,3.341m13.6-2.78a2.886,2.886,0,0,1-5.768,0V124.6h1.11v3.866a1.647,1.647,0,0,0,1.78,1.78,1.623,1.623,0,0,0,1.756-1.78V124.6H177.8Zm9.39-2.878h-2.11v5.61h-1.11v-5.61h-2.1V124.6h5.317Zm9.061,5.61H191.4v-6.6h4.744v.988h-3.634v1.793h3.256v1.012h-3.256v1.817h3.744Zm17.39,0H212.3V127.93h-4.219V131.2H206.74v-7.915h1.341v3.451H212.3v-3.451h1.341Zm1.72-29.207a16.645,16.645,0,0,1-3.768,1.585,16.263,16.263,0,0,1-8.378,0,16.881,16.881,0,0,1-3.768-1.585,16.084,16.084,0,0,1-3.2-2.488,15.286,15.286,0,0,1-2.476-3.183,16.216,16.216,0,0,1-1.61-3.744,15.785,15.785,0,0,1,0-8.341,15.565,15.565,0,0,1,1.61-3.744,15.951,15.951,0,0,1,2.476-3.183,15.577,15.577,0,0,1,6.963-4.037,15.921,15.921,0,0,1,8.378,0,16.078,16.078,0,0,1,3.768,1.573,15.824,15.824,0,0,1,5.658,5.646,15.547,15.547,0,0,1,2.146,7.915,15.3,15.3,0,0,1-.561,4.171,16.146,16.146,0,0,1-1.585,3.744,15.645,15.645,0,0,1-2.463,3.183,16.083,16.083,0,0,1-3.2,2.488m8.963,29.207h-4.854v-6.6h4.744v.988h-3.622v1.793h3.232v1.012h-3.232v1.817h3.732Zm10.268-2.732a2.892,2.892,0,0,1-5.78,0V124.6h1.11v3.866a1.65,1.65,0,0,0,1.793,1.78,1.628,1.628,0,0,0,1.756-1.78V124.6h1.122Zm2.134-24.988h-6.11V73.089h6.11Zm6.915,27.719-1.207-1.988h-1.878V131.2h-1.122v-6.6h2.7c1.7,0,2.683.817,2.683,2.256a2.137,2.137,0,0,1-1.39,2.146l1.5,2.2Zm10.756,0h-4.854v-6.6h4.744v.988h-3.622v1.793H253.9v1.012h-3.232v1.817H254.4Zm14.317-40.085a11.845,11.845,0,0,1-1.8,2.463,12.221,12.221,0,0,1-2.378,1.951l3.378,7.951h-6.488l-2.659-6.134-6.841.049v6.085h-6.1V73.089h12.219a11.815,11.815,0,0,1,3.232.439,11.553,11.553,0,0,1,2.9,1.232,11.983,11.983,0,0,1,2.463,1.9,12.273,12.273,0,0,1,1.927,2.476,11.9,11.9,0,0,1,1.219,2.89,11.364,11.364,0,0,1,.439,3.232,12.15,12.15,0,0,1-.39,3.049,12.721,12.721,0,0,1-1.122,2.8" transform="translate(31.752 58.338)" fill="#e34b1b"/>
        <path id="Tracé_1747" data-name="Tracé 1747" d="M40.127,13.056a6.241,6.241,0,0,0-1.939-1.3,5.841,5.841,0,0,0-2.354-.476H29.712V23.434h6.122a5.841,5.841,0,0,0,2.354-.476,6.2,6.2,0,0,0,3.256-3.232,6.018,6.018,0,0,0,.463-2.366A5.892,5.892,0,0,0,41.444,15a6.134,6.134,0,0,0-1.317-1.939" transform="translate(253.963 126.236)" fill="#e34b1b"/>
      </g>
    </g>
  </g>
</svg>
