<svg xmlns="http://www.w3.org/2000/svg" width="48" height="37.352" viewBox="0 0 48 37.352">
  <path id="Tracé_1964" data-name="Tracé 1964" d="M294.73,92.358c-2.332-2.051-4.489-4.312-6.615-6.58a3.85,3.85,0,0,0-3.143-1.252q-11.974.067-23.952-.007a3.923,3.923,0,0,0-3.107,1.33c-2.9,2.963-5.882,5.839-8.834,8.749v6.221c1.759.806,2.2,2.211,2.162,4.067-.1,4.524-.045,9.053-.024,13.579,0,1.179-.132,2.407.736,3.407h5.75c.919-1.08.731-2.4.738-3.652.028-5.066,0-10.135.193-15.2.323,3.206.146,6.424.266,9.633.1,2.652.792,3.242,3.586,3.251,2.827.012,3.522-.566,3.6-3.2.09-2.862.071-5.731.014-8.593-.038-1.806.644-2.6,2.511-2.556,2.945.078,5.9.078,8.843,0,1.867-.047,2.546.75,2.513,2.556-.054,2.942-.066,5.889.017,8.834.031,1.04.118,2.082,1.242,2.643,3.039,1.518,5.884-.09,5.957-3.407.066-3.051-.045-6.108.243-9.156.2,5.069.172,10.137.2,15.2.007,1.257-.182,2.572.738,3.652h5.75c0-6.457-.014-12.917.026-19.374,0-.58-.486-1.785.681-1.622,2.739.38,2.013-1.464,2.2-2.919A5.944,5.944,0,0,0,294.73,92.358Zm-33.271-5.887q11.609-.018,23.224,0c.54,0,1.266-.047,1.587.259,2.419,2.313,4.757,4.71,7.384,7.341H252.39c2.612-2.6,4.944-4.918,7.261-7.245C260.186,86.292,260.844,86.471,261.459,86.471Zm-5.667,32.151c0,.736.094,1.407-1.047,1.358-1.24-.054-.851-.915-.86-1.523-.033-2.7-.014-5.394-.014-8.093s-.014-5.394.009-8.091c.007-.632-.316-1.452.91-1.483,1.2-.028.995.721.995,1.407C255.789,107.672,255.782,113.146,255.792,118.623Zm7.669-6.306c0,.7-.236.962-.962.962s-.981-.24-.971-.952c.028-1.82.009-3.64.009-5.46,0-1.662.031-3.326-.014-4.986-.021-.816.257-1.1,1.084-1.082s.849.476.849,1.073C263.449,105.352,263.442,108.834,263.461,112.316Zm19.157-5.281c0-1.582-.024-3.166.014-4.748.014-.62-.342-1.455.886-1.495,1.165-.038,1.018.672,1.018,1.381q0,4.866,0,9.734c0,.714.137,1.414-1.023,1.374-1.231-.042-.868-.879-.882-1.5C282.594,110.2,282.618,108.62,282.618,107.036Zm9.583,3.6c0,2.619.017,5.236-.012,7.855-.007.622.337,1.457-.9,1.492-1.179.035-1.009-.693-1.009-1.393q0-8.211,0-16.422c0-.724-.125-1.417,1.03-1.372,1.238.047.868.9.875,1.511C292.217,105.081,292.2,107.858,292.2,110.635ZM252.913,98.9c-.981,0-1.987.325-1.987-1.433s1.007-1.431,1.987-1.433q10.181-.007,20.362,0,9.944,0,19.885,0c.981,0,1.987-.325,1.987,1.433s-1.009,1.431-1.99,1.433Q273.037,98.906,252.913,98.9Z" transform="translate(-249.08 -84.519)" fill="#e34b1b"/>
</svg>
