<svg xmlns="http://www.w3.org/2000/svg" xmlns:xlink="http://www.w3.org/1999/xlink" width="236.391" height="236.39" viewBox="0 0 236.391 236.39">
  <defs>
    <filter id="Tracé_1725" x="0" y="0" width="236.391" height="236.39" filterUnits="userSpaceOnUse">
      <feOffset dy="3" input="SourceAlpha"/>
      <feGaussianBlur stdDeviation="25" result="blur"/>
      <feFlood flood-opacity="0.059"/>
      <feComposite operator="in" in2="blur"/>
      <feComposite in="SourceGraphic"/>
    </filter>
  </defs>
  <g id="Groupe_324" data-name="Groupe 324" transform="translate(-71.207 -156.199)">
    <g transform="matrix(1, 0, 0, 1, 71.21, 156.2)" filter="url(#Tracé_1725)">
      <path id="Tracé_1725-2" data-name="Tracé 1725" d="M43.2,0A43.2,43.2,0,1,1,0,43.2,43.2,43.2,0,0,1,43.2,0Z" transform="translate(75 72)" fill="#fff"/>
    </g>
    <g id="Groupe_85" data-name="Groupe 85" transform="translate(1.072 -2433.37)">
      <g id="JDhUwy.tif" transform="translate(-64.191 2495)">
        <g id="Groupe_33" data-name="Groupe 33" transform="translate(207.8 158)">
          <path id="Tracé_1510" data-name="Tracé 1510" d="M263.009,158.014c7.9,2.523,15.793,5.076,23.711,7.585,3,.957,6.033,1.813,9.861,2.958-4.046,3.814-7.643,7.193-11.341,10.674,3.306,5.047,6.424,9.832,9.8,15l-36.226,18.983c-2.32-5.409-4.554-10.6-7.179-16.721-2.871,6.685-5.366,12.515-8.092,18.882-11.573-5.076-22.942-10.05-34.587-15.169,3.756-5.844,7.236-11.254,10.862-16.895-3.93-3.19-7.672-6.236-12.022-9.76,7.643-3.176,14.792-5.772,21.608-9.064,8.107-3.916,15.88-7.7,23.087,3.655,3.379-3.916,6.076-7.033,8.774-10.137C261.863,158.014,262.429,158.014,263.009,158.014Zm19.549,21.013c-10.267-3.495-19.621-6.7-29.018-9.832a3.863,3.863,0,0,0-2.494.044c-9.18,4-18.331,8.078-28.192,12.457,9.5,4.046,18.2,7.773,26.945,11.413a3.984,3.984,0,0,0,2.857.116C262.386,188.7,272.058,184.046,282.558,179.028Z" transform="translate(-207.8 -158)" fill="#202020"/>
          <path id="Tracé_1511" data-name="Tracé 1511" d="M302.779,470.261c7.875,3.437,15.459,6.744,23.522,10.253,2.045-4.771,3.988-9.325,6.337-14.821,2.1,4.6,3.872,8.5,5.83,12.776,9.5-4.945,18.838-9.8,29.149-15.169,0,5.511.131,10.064-.1,14.589-.044.943-1.233,2.175-2.219,2.668-10.006,5.047-20.042,10.035-30.164,14.85a5.79,5.79,0,0,1-4.351.029c-8.4-3.727-16.764-7.556-24.987-11.674a6.792,6.792,0,0,1-2.886-4.452C302.431,476.555,302.779,473.654,302.779,470.261Z" transform="translate(-288.901 -419.025)" fill="#202020"/>
        </g>
      </g>
    </g>
  </g>
</svg>
