<svg xmlns="http://www.w3.org/2000/svg" width="56.48" height="36.603" viewBox="0 0 56.48 36.603">
  <g id="money" transform="translate(0 -9.939)">
    <g id="Groupe_402" data-name="Groupe 402">
      <g id="Groupe_401" data-name="Groupe 401">
        <path id="Tracé_1906" data-name="Tracé 1906" d="M12.121,24.861a1.875,1.875,0,0,0-1.018-.226l-.383,0a.591.591,0,0,0-.557.444L9.81,26.6a.35.35,0,0,0,.356.447h.286a2.453,2.453,0,0,0,1.48-.389,1.26,1.26,0,0,0,.526-1.1A.773.773,0,0,0,12.121,24.861Z" fill="#fff"/>
      </g>
    </g>
    <g id="Groupe_404" data-name="Groupe 404">
      <g id="Groupe_403" data-name="Groupe 403">
        <path id="Tracé_1907" data-name="Tracé 1907" d="M18.371,28.364c-.069,0-.6.062-.866.095a4.422,4.422,0,0,0-.771.174l-.5.338a.881.881,0,0,0-.171.571l.226.438a1.4,1.4,0,0,0,.667.128,1.638,1.638,0,0,0,.612-.134l.46-.237.182-.242c.072-.282.221-.909.238-.987Z" fill="#fff"/>
      </g>
    </g>
    <g id="Groupe_406" data-name="Groupe 406">
      <g id="Groupe_405" data-name="Groupe 405">
        <path id="Tracé_1908" data-name="Tracé 1908" d="M55.026,9.939H1.454A1.453,1.453,0,0,0,0,11.393V45.087a1.454,1.454,0,0,0,1.454,1.455H55.026a1.453,1.453,0,0,0,1.454-1.454v-33.7A1.453,1.453,0,0,0,55.026,9.939ZM13.484,27.695a5.541,5.541,0,0,1-3.336.88H9.814a.6.6,0,0,0-.561.444l-.4,1.738a.6.6,0,0,1-.562.446H7.119a.346.346,0,0,1-.353-.446l1.645-7.163a.614.614,0,0,1,.563-.447h2.444a8.264,8.264,0,0,1,1.381.109,3.014,3.014,0,0,1,1.018.374,1.732,1.732,0,0,1,.639.689,2.162,2.162,0,0,1,.225,1.055A2.738,2.738,0,0,1,13.484,27.695Zm7.262-.914-.044.3-.854,3.692a.6.6,0,0,1-.5.438l-.016.006H18.241l0,0a.347.347,0,0,1-.313-.438v0l0-.007.044-.188-.006-.007-.441.291-.48.268-.566.194a3.264,3.264,0,0,1-.735.067,1.788,1.788,0,0,1-1.233-.42,1.444,1.444,0,0,1-.476-1.11,2.168,2.168,0,0,1,.334-1.224,2.3,2.3,0,0,1,1.007-.794,5.375,5.375,0,0,1,1.484-.408c.582-.084,1.062-.145,1.727-.187l.168-.1.021-.165a.539.539,0,0,0-.353-.532,2.9,2.9,0,0,0-1.064-.15,5.038,5.038,0,0,0-1.1.147,6.324,6.324,0,0,0-.7.207c-.09.031-.307.046-.226-.33l.143-.589a.687.687,0,0,1,.515-.542c.215-.048.249-.057.6-.111a9.291,9.291,0,0,1,1.416-.11,4.441,4.441,0,0,1,2.092.373,1.237,1.237,0,0,1,.667,1.157Zm1.881,7.274-1.212,0c-.252,0-.335-.2-.181-.446L22.271,31.8s.083-.1.009-.693c-.16-1.066-.956-5.6-.956-5.6a.345.345,0,0,1,.35-.446l1.049,0a.643.643,0,0,1,.637.459l.522,3.143.194,0c.163-.289,1.839-3.165,1.839-3.165a1.017,1.017,0,0,1,.736-.447s1.127,0,1.4,0c.416-.006-.032.668-.032.668l-4.664,7.887A.98.98,0,0,1,22.627,34.055Zm12.117-6.329A5.581,5.581,0,0,1,31.4,28.6h-.334a.6.6,0,0,0-.562.443l-.4,1.741a.6.6,0,0,1-.562.44l-1.173,0a.346.346,0,0,1-.353-.444l1.646-7.167a.612.612,0,0,1,.56-.445l2.447,0a8.153,8.153,0,0,1,1.375.108,2.889,2.889,0,0,1,1.019.373,1.8,1.8,0,0,1,.644.692,2.246,2.246,0,0,1,.225,1.054A2.778,2.778,0,0,1,34.744,27.726ZM42,26.786l-.043.3L41.1,30.778a.6.6,0,0,1-.5.44l-.016.006H39.5l0-.006a.341.341,0,0,1-.312-.438l0,0,.005,0,.039-.188-.007-.009-.438.3-.483.267-.565.191A3.365,3.365,0,0,1,37,31.4a1.8,1.8,0,0,1-1.232-.423,1.434,1.434,0,0,1-.479-1.111,2.153,2.153,0,0,1,.335-1.221,2.32,2.32,0,0,1,1.006-.8,5.457,5.457,0,0,1,1.487-.408c.578-.084,1.058-.145,1.728-.186l.168-.106.018-.165a.535.535,0,0,0-.354-.531,2.866,2.866,0,0,0-1.062-.151,5.221,5.221,0,0,0-1.1.147,6.686,6.686,0,0,0-.695.207c-.1.029-.309.046-.229-.33l.143-.588a.68.68,0,0,1,.514-.542c.217-.047.252-.058.6-.109a8.9,8.9,0,0,1,1.416-.113,4.454,4.454,0,0,1,2.091.375,1.234,1.234,0,0,1,.669,1.155Zm3.75-3.107-1.568,7.1-.055.084a.6.6,0,0,1-.506.362H42.535l-.02-.025a.333.333,0,0,1-.293-.417l0,0,.047-.2,1.466-6.662.052-.232.059-.091a.6.6,0,0,1,.5-.355h1.047a.346.346,0,0,1,.354.443Zm2.078-.768h-.392v.521l0,.14.027.094.062.06.12.019.1-.014.073-.022h.009v.171l-.117.023-.111.009-.266-.095-.091-.3v-.606h-.132v-.162h.132v-.325h.193v.325h.392Zm1.895.239v.737h-.189v-.65l-.012-.139-.025-.11-.066-.065-.127-.023-.159.041-.163.1,0,.056,0,.06v.729H48.8v-.65l-.008-.141-.027-.109-.064-.065-.129-.023-.157.039-.159.1v.85h-.188V22.75h.188v.127l.182-.116.188-.042.2.047.122.136.21-.141.205-.042.277.113.09.318h0Z" fill="#fff"/>
      </g>
    </g>
    <g id="Groupe_408" data-name="Groupe 408">
      <g id="Groupe_407" data-name="Groupe 407">
        <path id="Tracé_1909" data-name="Tracé 1909" d="M39.628,28.37c-.069,0-.6.061-.86.095a4.233,4.233,0,0,0-.771.174,1.188,1.188,0,0,0-.5.338.905.905,0,0,0-.168.572l.229.437a1.338,1.338,0,0,0,.666.129,1.644,1.644,0,0,0,.608-.133l.457-.237.188-.242c.07-.285.222-.91.234-.988Z" fill="#fff"/>
      </g>
    </g>
    <g id="Groupe_410" data-name="Groupe 410">
      <g id="Groupe_409" data-name="Groupe 409">
        <path id="Tracé_1910" data-name="Tracé 1910" d="M33.372,24.888a1.878,1.878,0,0,0-1.016-.227l-.381,0a.6.6,0,0,0-.56.445l-.354,1.519a.35.35,0,0,0,.359.446h.291a2.5,2.5,0,0,0,1.478-.384,1.288,1.288,0,0,0,.526-1.1A.792.792,0,0,0,33.372,24.888Z" fill="#fff"/>
      </g>
    </g>
  </g>
</svg>
