<svg xmlns="http://www.w3.org/2000/svg" xmlns:xlink="http://www.w3.org/1999/xlink" width="236.39" height="236.39" viewBox="0 0 236.39 236.39">
  <defs>
    <filter id="Tracé_1723" x="0" y="0" width="236.39" height="236.39" filterUnits="userSpaceOnUse">
      <feOffset dy="3" input="SourceAlpha"/>
      <feGaussianBlur stdDeviation="25" result="blur"/>
      <feFlood flood-opacity="0.059"/>
      <feComposite operator="in" in2="blur"/>
      <feComposite in="SourceGraphic"/>
    </filter>
  </defs>
  <g id="Groupe_325" data-name="Groupe 325" transform="translate(-81 -160.112)">
    <g transform="matrix(1, 0, 0, 1, 81, 160.11)" filter="url(#Tracé_1723)">
      <path id="Tracé_1723-2" data-name="Tracé 1723" d="M43.2,0A43.2,43.2,0,1,1,0,43.2,43.2,43.2,0,0,1,43.2,0Z" transform="translate(75 72)" fill="#fff"/>
    </g>
    <g id="Groupe_184" data-name="Groupe 184" transform="translate(10 -1830.37)">
      <g id="Groupe_181" data-name="Groupe 181" transform="translate(128 2024.348)">
        <g id="Tracé_1718" data-name="Tracé 1718" transform="translate(40 21.652)" fill="#202020">
          <path d="M 32 82.5 L 10 82.5 C 4.761677742004395 82.5 0.5 78.23831939697266 0.5 73 L 0.5 10 C 0.5 4.761677742004395 4.761677742004395 0.5 10 0.5 L 32 0.5 C 37.23832321166992 0.5 41.5 4.761677742004395 41.5 10 L 41.5 73 C 41.5 78.23831939697266 37.23832321166992 82.5 32 82.5 Z" stroke="none"/>
          <path d="M 10 1 C 5.037376403808594 1 1 5.037376403808594 1 10 L 1 73 C 1 77.96262359619141 5.037376403808594 82 10 82 L 32 82 C 36.96262359619141 82 41 77.96262359619141 41 73 L 41 10 C 41 5.037376403808594 36.96262359619141 1 32 1 L 10 1 M 10 0 L 32 0 C 37.52284240722656 0 42 4.477142333984375 42 10 L 42 73 C 42 78.52284240722656 37.52284240722656 83 32 83 L 10 83 C 4.477153778076172 83 0 78.52284240722656 0 73 L 0 10 C 0 4.477142333984375 4.477153778076172 0 10 0 Z" stroke="none" fill="#17233d"/>
        </g>
        <rect id="Rectangle_41" data-name="Rectangle 41" width="25.173" height="4.195" rx="2.098" transform="translate(49.15 96.042)" fill="#e96328"/>
      </g>
      <path id="Rectangle_187" data-name="Rectangle 187" d="M0,0H27a0,0,0,0,1,0,0V0a5,5,0,0,1-5,5H5A5,5,0,0,1,0,0V0A0,0,0,0,1,0,0Z" transform="translate(176 2047)" fill="#fff"/>
      <rect id="Rectangle_188" data-name="Rectangle 188" width="13" height="15" rx="2" transform="translate(193 2062)" fill="#e96328" opacity="0.706"/>
      <rect id="Rectangle_189" data-name="Rectangle 189" width="13" height="15" rx="2" transform="translate(174 2062)" fill="#e96328" opacity="0.701"/>
      <rect id="Rectangle_190" data-name="Rectangle 190" width="13" height="15" rx="2" transform="translate(174 2083)" fill="#e96328" opacity="0.696"/>
      <rect id="Rectangle_191" data-name="Rectangle 191" width="13" height="15" rx="2" transform="translate(193 2083)" fill="#e96328" opacity="0.696"/>
      <rect id="Rectangle_192" data-name="Rectangle 192" width="25" height="2" transform="translate(174 2105)" fill="#fff"/>
      <rect id="Rectangle_193" data-name="Rectangle 193" width="20" height="1" transform="translate(174 2108)" fill="#fff" opacity="0.568"/>
      <rect id="Rectangle_194" data-name="Rectangle 194" width="20" height="2" transform="translate(174 2110)" fill="#fff" opacity="0.529"/>
    </g>
  </g>
</svg>
