<svg xmlns="http://www.w3.org/2000/svg" xmlns:xlink="http://www.w3.org/1999/xlink" width="238.994" height="238.994" viewBox="0 0 238.994 238.994">
  <defs>
    <filter id="Tracé_1719" x="0" y="0" width="238.994" height="238.994" filterUnits="userSpaceOnUse">
      <feOffset dy="3" input="SourceAlpha"/>
      <feGaussianBlur stdDeviation="25" result="blur"/>
      <feFlood flood-opacity="0.059"/>
      <feComposite operator="in" in2="blur"/>
      <feComposite in="SourceGraphic"/>
    </filter>
  </defs>
  <g id="Groupe_183" data-name="Groupe 183" transform="translate(-70.999 -2228.615)">
    <g id="Groupe_182" data-name="Groupe 182" transform="translate(125 2260)">
      <g id="Groupe_49" data-name="Groupe 49" transform="translate(-0.61 4.396)">
        <g transform="matrix(1, 0, 0, 1, -53.39, -35.78)" filter="url(#Tracé_1719)">
          <path id="Tracé_1719-2" data-name="Tracé 1719" d="M44.5,0A44.5,44.5,0,1,1,0,44.5,44.5,44.5,0,0,1,44.5,0Z" transform="translate(75 72)" fill="#fff"/>
        </g>
      </g>
      <g id="Tracé_1713" data-name="Tracé 1713" transform="translate(43.529 23.002)" fill="#202020">
        <path d="M 36.35932159423828 86.61086273193359 L 7.574855327606201 86.61086273193359 C 3.673766374588013 86.61086273193359 0.4999998211860657 83.43709564208984 0.4999998211860657 79.5360107421875 L 0.4999998211860657 7.574864864349365 C 0.4999998211860657 3.673764705657959 3.673766374588013 0.4999980330467224 7.574855327606201 0.4999980330467224 L 36.35932159423828 0.4999980330467224 C 40.26041030883789 0.4999980330467224 43.43417739868164 3.673764705657959 43.43417739868164 7.574864864349365 L 43.43417739868164 79.5360107421875 C 43.43417739868164 83.43709564208984 40.26041030883789 86.61086273193359 36.35932159423828 86.61086273193359 Z" stroke="none"/>
        <path d="M 7.574851989746094 0.9999923706054688 C 3.949466705322266 0.9999923706054688 0.9999961853027344 3.949462890625 0.9999961853027344 7.574851989746094 L 0.9999961853027344 79.53599548339844 C 0.9999961853027344 83.16139221191406 3.949466705322266 86.11087036132812 7.574851989746094 86.11087036132812 L 36.35931396484375 86.11087036132812 C 39.98469924926758 86.11087036132812 42.93416976928711 83.16139221191406 42.93416976928711 79.53599548339844 L 42.93416976928711 7.574851989746094 C 42.93416976928711 3.949462890625 39.98469924926758 0.9999923706054688 36.35931396484375 0.9999923706054688 L 7.574851989746094 0.9999923706054688 M 7.574851989746094 -7.62939453125e-06 L 36.35931396484375 -7.62939453125e-06 C 40.54279327392578 -7.62939453125e-06 43.93416976928711 3.391387939453125 43.93416976928711 7.574851989746094 L 43.93416976928711 79.53599548339844 C 43.93416976928711 83.71947479248047 40.54279327392578 87.11087036132812 36.35931396484375 87.11087036132812 L 7.574851989746094 87.11087036132812 C 3.391384124755859 87.11087036132812 -3.814697265625e-06 83.71947479248047 -3.814697265625e-06 79.53599548339844 L -3.814697265625e-06 7.574851989746094 C -3.814697265625e-06 3.391387939453125 3.391384124755859 -7.62939453125e-06 7.574851989746094 -7.62939453125e-06 Z" stroke="none" fill="#202020"/>
      </g>
      <rect id="Rectangle_41" data-name="Rectangle 41" width="26.289" height="4.381" rx="2.191" transform="translate(52.352 100.576)" fill="#e96328"/>
    </g>
    <path id="Rectangle_195" data-name="Rectangle 195" d="M0,0H29a0,0,0,0,1,0,0V0a5,5,0,0,1-5,5H5A5,5,0,0,1,0,0V0A0,0,0,0,1,0,0Z" transform="translate(176 2284)" fill="#fff"/>
    <rect id="Rectangle_196" data-name="Rectangle 196" width="26" height="2" transform="translate(173 2344)" fill="#fff"/>
    <rect id="Rectangle_197" data-name="Rectangle 197" width="21" height="2" transform="translate(173 2347)" fill="#fff" opacity="0.568"/>
    <rect id="Rectangle_198" data-name="Rectangle 198" width="21" height="1" transform="translate(173 2351)" fill="#fff" opacity="0.529"/>
    <ellipse id="Ellipse_8" data-name="Ellipse 8" cx="13" cy="12.5" rx="13" ry="12.5" transform="translate(178 2300)" fill="#71b142"/>
    <path id="check_2_" data-name="check (2)" d="M19.862,7.235a1.084,1.084,0,0,0-1.539,0l-8.075,8.086-3.393-3.4a1.108,1.108,0,1,0-1.539,1.593l4.162,4.162a1.084,1.084,0,0,0,1.539,0l8.845-8.845a1.084,1.084,0,0,0,0-1.593Z" transform="translate(178.117 2299.968)" fill="#fff"/>
  </g>
</svg>
