<svg xmlns="http://www.w3.org/2000/svg" width="23.775" height="13.37" viewBox="0 0 23.775 13.37">
  <g id="pig-side-view-silhouette" transform="translate(0 -146.641)">
    <g id="Groupe_261" data-name="Groupe 261" transform="translate(0 146.641)">
      <path id="Tracé_1756" data-name="Tracé 1756" d="M23.419,150.666a.286.286,0,0,0-.171.342,1.071,1.071,0,0,1,.032.142,1.191,1.191,0,0,1,0,.192,1.288,1.288,0,0,1-.053.217,1.2,1.2,0,0,1-.071.147l-.026.043-.008.012c-.016.021-.032.042-.049.062s-.043.049-.066.071l-.014.014-.017.014a.972.972,0,0,1-.142.091,1.011,1.011,0,0,1-.21.064,1.089,1.089,0,0,1-.25,0,1.172,1.172,0,0,1-.26-.081,1.14,1.14,0,0,1-.191-.124l-.021-.017-.033-.031c.024-.015.047-.03.069-.047a1.357,1.357,0,0,0,.471-.6,1.534,1.534,0,0,0,.106-.477,1.107,1.107,0,0,0-.057-.424.948.948,0,0,0-.218-.367.835.835,0,0,0-.333-.208.651.651,0,0,0-.7.211,1.272,1.272,0,0,0-.256.735,2.109,2.109,0,0,0,.094.745l.009.027a.963.963,0,0,1-.1-.037.99.99,0,0,1-.134-.083l-.043-.033-.051-.049c-.024-.025-.047-.05-.068-.078-.009-.012-.037-.052-.043-.059l-.008-.013a1.238,1.238,0,0,1-.085-.367c0-.047,0-.065.047-.079a.577.577,0,0,0,.38-.632.679.679,0,0,0-.664-.658c-.1,0-.2.019-.3.028a.066.066,0,0,1-.043-.014c-.079-.063-.153-.134-.235-.191-.292-.2-.59-.392-.881-.6-.272-.192-.535-.4-.806-.593a6.452,6.452,0,0,0-1.408-.778,4.88,4.88,0,0,0-1.391-.32c-.262-.021-.524-.038-.785-.058-.282-.021-.564-.046-.847-.062s-.593-.031-.889-.037c-.4-.008-.8-.009-1.2-.011s-.795,0-1.192,0-.778-.029-1.167-.045c-.027,0-.054-.006-.081-.008H8.779c-.019,0-.037.007-.056.008-.137.01-.274.017-.411.03a3.937,3.937,0,0,0-.724.145,7.223,7.223,0,0,0-1,.381c-.486.222-.958.476-1.427.741-.2.111-.391.229-.589.337-.259.141-.523.27-.781.413a9.544,9.544,0,0,0-1.382.927,6.532,6.532,0,0,0-.643.589c-.084.089-.164.184-.246.276-.022.025-.043.047-.081.037a2.98,2.98,0,0,1-.656-.225.462.462,0,0,1-.113-.094c-.034-.035-.057-.083-.092-.117a1.009,1.009,0,0,0-.178-.15.142.142,0,0,0-.211.1.611.611,0,0,0-.025.144c0,.065,0,.131,0,.2l-.032,0c-.086,0-.137.055-.13.153a.549.549,0,0,0,.03.138.981.981,0,0,0,.195.338,3.583,3.583,0,0,1,.349.492.972.972,0,0,0,.116.148.806.806,0,0,0,.434.236.227.227,0,0,1,.181.106.114.114,0,0,1,.01.052,1.3,1.3,0,0,0-.006.17c.015.131.036.261.06.39a4.424,4.424,0,0,1,.1.681.661.661,0,0,1-.105.43.217.217,0,0,1-.147.105.2.2,0,0,0-.193.2c0,.03-.019.044-.048.042a.181.181,0,0,0-.172.093.125.125,0,0,1-.121.063c-.059-.006-.118-.018-.177-.027-.136-.022-.147.043-.12.159s.064.238.094.357a.5.5,0,0,1,.014.117c0,.126-.009.253,0,.378.019.238.14.4.369.384a.2.2,0,0,1,.144.045.5.5,0,0,1,.178.207c-.03.027-.06.053-.089.081a.094.094,0,0,0-.011.14.58.58,0,0,0,.387.221,1.126,1.126,0,0,0,.336-.033,1,1,0,0,1,.56.027,3.372,3.372,0,0,0,1.029.233,2.477,2.477,0,0,0,.517-.026,2.025,2.025,0,0,0,.683-.23.362.362,0,0,1,.339-.019,2.845,2.845,0,0,1,.3.17.437.437,0,0,0,.376.082c.078-.026.109-.007.157.072a1.075,1.075,0,0,1,.132.553c0,.145,0,.29,0,.435s.021.267.032.4a.307.307,0,0,1,.008.089c-.053.22-.106.441-.166.659a.88.88,0,0,1-.255.446.568.568,0,0,0-.12.171c-.025.05-.047.1-.07.153a1.774,1.774,0,0,1-.263.434.829.829,0,0,0,.133.068,1.007,1.007,0,0,0,.788-.094.238.238,0,0,1,.219-.031.115.115,0,0,0,.148-.065A.438.438,0,0,0,6.4,159.7c.024-.081.047-.162.064-.245.033-.163.062-.327.09-.491a2.31,2.31,0,0,1,.22-.714,1.407,1.407,0,0,0,.153-.385c.011-.055.018-.111.027-.167a.072.072,0,0,1,.017,0,.231.231,0,0,1,.2.18c.027.084.045.17.067.256a.667.667,0,0,0,.193.36.663.663,0,0,1,.135.145.752.752,0,0,0,.546.385c.011,0,.021.013.031.02a.909.909,0,0,0,.09.071q.2.118.4.231a.036.036,0,0,0,.036-.009.43.43,0,0,0,.062-.107.741.741,0,0,0-.1-.664,1.045,1.045,0,0,0-.133-.138.347.347,0,0,1,.048-.025c.043-.014.087-.023.129-.04a.087.087,0,0,0,.05-.13.373.373,0,0,0-.2-.208c-.059-.026-.122-.043-.181-.068a.1.1,0,0,1-.039-.04,1.212,1.212,0,0,0-.1-.158,1.435,1.435,0,0,0-.161-.133.138.138,0,0,1-.059-.1.332.332,0,0,1,.133-.315c.058-.043.116-.085.176-.125a1.04,1.04,0,0,0,.363-.4.342.342,0,0,1,.15-.157,2.363,2.363,0,0,0,.6-.468.182.182,0,0,1,.092-.064c.063-.012.125-.03.188-.038a3.175,3.175,0,0,1,.725.011c.177.019.353.046.53.07.23.031.46.066.691.094.2.025.408.048.613.062a4.547,4.547,0,0,0,.742-.006,3.063,3.063,0,0,0,.6-.109,4.966,4.966,0,0,1,1.149-.219,2.861,2.861,0,0,1,.855.068,1.026,1.026,0,0,1,.368.154.081.081,0,0,1,.036.066c.018.2.035.392.059.587a4.285,4.285,0,0,1,.053.74.892.892,0,0,1-.089.361c-.165.326-.33.651-.49.979a1.759,1.759,0,0,0-.176.494.33.33,0,0,1-.009.076c-.052.117-.1.233-.161.347-.028.057-.065.108-.1.167.125.022.242.046.36.063a1.208,1.208,0,0,0,.479-.006.406.406,0,0,0,.312-.277s.006-.005.007-.006a.841.841,0,0,0,.078.061.128.128,0,0,0,.191-.13,1.892,1.892,0,0,1,.015-.258,2.507,2.507,0,0,1,.145-.655,2.763,2.763,0,0,1,.615-.95.283.283,0,0,1,.1-.063c.066-.026.135-.044.2-.066a.256.256,0,0,0,.171-.158,2.359,2.359,0,0,0,.094-.284,2.747,2.747,0,0,0,.039-.277.3.3,0,0,1,.266.135c.033.054.057.116.091.169s.09.122.135.183a.663.663,0,0,1,.086.119,1.957,1.957,0,0,1,.122.678c.009.143,0,.287,0,.431,0,.168,0,.336.01.5a.355.355,0,0,1-.032.176c-.057.119-.117.236-.177.353-.047.092-.04.112.054.13a1.391,1.391,0,0,0,.686-.039.46.46,0,0,0,.343-.3.856.856,0,0,0,.084.037c.067.022.108-.011.117-.089a.61.61,0,0,0-.042-.283,3.824,3.824,0,0,1-.249-.942,1.461,1.461,0,0,1,.025-.486,1.432,1.432,0,0,1,.173-.39.256.256,0,0,0,.049-.189A.092.092,0,0,1,19.64,157a.459.459,0,0,0,.073-.374,1.8,1.8,0,0,0-.116-.293,1.727,1.727,0,0,1-.179-.5.154.154,0,0,1,.006-.084c.158-.305.319-.608.479-.912a3.979,3.979,0,0,0,.349-.806c.077-.285.139-.575.213-.86a5.854,5.854,0,0,0,.18-1.354,1.193,1.193,0,0,0,.275.128,1.119,1.119,0,0,0,.419.048c.025.035.05.069.077.1a1.5,1.5,0,0,0,.608.449,1.229,1.229,0,0,0,1.353-.289,1.5,1.5,0,0,0,.342-1.4A.247.247,0,0,0,23.419,150.666Zm-1.616.529c-.019.021-.039.041-.06.06l-.013.011-.041.031a1.107,1.107,0,0,1-.122.076l-.022-.052a2.076,2.076,0,0,1-.1-.4,1.672,1.672,0,0,1,0-.306,1.181,1.181,0,0,1,.045-.192.7.7,0,0,1,.033-.068l.017-.029.009-.012a.516.516,0,0,1,.036-.041.485.485,0,0,1,.048-.032.426.426,0,0,1,.047-.014.45.45,0,0,1,.06,0,.3.3,0,0,1,.14.064l.013.01.025.026c.012.013.024.027.035.042a.7.7,0,0,1,.04.078.9.9,0,0,1,.03.124,1.079,1.079,0,0,1,0,.162,1.189,1.189,0,0,1-.045.186,1.1,1.1,0,0,1-.084.165l-.014.021-.015.02C21.843,151.149,21.824,151.172,21.8,151.194Z" transform="translate(0 -146.641)" fill="#e34b1b"/>
    </g>
  </g>
</svg>
