<svg xmlns="http://www.w3.org/2000/svg" width="68.884" height="34.158" viewBox="0 0 68.884 34.158">
  <g id="pig-side-view-silhouette" transform="translate(0 -146.641)">
    <g id="Groupe_261" data-name="Groupe 261" transform="translate(0 146.641)">
      <path id="Tracé_1756" data-name="Tracé 1756" d="M67.854,156.923a.714.714,0,0,0-.5.873,2.461,2.461,0,0,1,.092.362,2.686,2.686,0,0,1,0,.491,2.974,2.974,0,0,1-.153.554,2.92,2.92,0,0,1-.206.376c-.024.037-.049.074-.074.11l-.022.029c-.045.055-.092.108-.141.159s-.125.125-.192.183l-.042.035-.05.036a2.89,2.89,0,0,1-.411.232,3.224,3.224,0,0,1-.607.165,3.567,3.567,0,0,1-.725,0,3.734,3.734,0,0,1-.754-.207,3.378,3.378,0,0,1-.555-.316l-.06-.043c-.032-.026-.064-.053-.095-.08.068-.038.135-.078.2-.12a3.572,3.572,0,0,0,1.364-1.537,3.53,3.53,0,0,0,.306-1.218,2.52,2.52,0,0,0-.164-1.084,2.382,2.382,0,0,0-.63-.937,2.487,2.487,0,0,0-.966-.532,2.046,2.046,0,0,0-2.019.54,3.016,3.016,0,0,0-.742,1.878,4.793,4.793,0,0,0,.273,1.9l.025.068c-.1-.026-.191-.058-.284-.094a2.956,2.956,0,0,1-.387-.212c-.042-.028-.084-.056-.125-.085-.026-.022-.119-.1-.147-.124-.069-.063-.135-.128-.2-.2-.027-.03-.107-.132-.124-.152l-.022-.032a2.854,2.854,0,0,1-.245-.937c-.012-.121.014-.167.138-.2a1.471,1.471,0,0,0,1.1-1.616,1.871,1.871,0,0,0-1.923-1.68c-.29,0-.579.05-.87.072a.21.21,0,0,1-.125-.035c-.228-.161-.443-.343-.681-.487-.847-.514-1.71-1-2.552-1.525-.788-.49-1.551-1.02-2.336-1.516a19.555,19.555,0,0,0-4.08-1.989,15.751,15.751,0,0,0-4.029-.816c-.758-.054-1.517-.1-2.276-.147-.818-.053-1.635-.117-2.453-.158-.858-.043-1.717-.079-2.576-.095-1.159-.021-2.319-.022-3.479-.027s-2.3.011-3.455-.01c-1.127-.02-2.254-.074-3.381-.115-.078,0-.157-.014-.234-.021h-.829c-.054.007-.108.017-.162.021-.4.026-.794.044-1.191.076a12.764,12.764,0,0,0-2.1.37,22.736,22.736,0,0,0-2.9.974c-1.407.567-2.777,1.216-4.134,1.892-.57.284-1.132.585-1.706.86-.751.36-1.516.69-2.264,1.055a28.166,28.166,0,0,0-4,2.368,18.287,18.287,0,0,0-1.863,1.505c-.244.228-.475.47-.713.7a.234.234,0,0,1-.234.095,9.444,9.444,0,0,1-1.9-.576,1.314,1.314,0,0,1-.328-.241c-.1-.09-.166-.213-.267-.3a2.866,2.866,0,0,0-.516-.384.425.425,0,0,0-.611.257,1.4,1.4,0,0,0-.073.367c-.012.167,0,.335,0,.507-.03,0-.061-.006-.092-.006a.337.337,0,0,0-.378.39,1.263,1.263,0,0,0,.085.353,2.454,2.454,0,0,0,.564.864,9.256,9.256,0,0,1,1.012,1.258,2.56,2.56,0,0,0,.337.379,2.443,2.443,0,0,0,1.258.6.677.677,0,0,1,.524.272.262.262,0,0,1,.029.134,2.941,2.941,0,0,0-.016.435c.045.334.1.667.173,1a10.066,10.066,0,0,1,.3,1.739,1.537,1.537,0,0,1-.305,1.1.633.633,0,0,1-.426.269.558.558,0,0,0-.559.52.114.114,0,0,1-.139.107.546.546,0,0,0-.5.237.376.376,0,0,1-.349.162c-.172-.015-.342-.045-.513-.069-.395-.057-.427.109-.349.407s.186.608.272.913a1.146,1.146,0,0,1,.042.3c0,.322-.026.647,0,.967a.959.959,0,0,0,1.07.982.642.642,0,0,1,.418.116,1.338,1.338,0,0,1,.516.529c-.086.07-.174.136-.258.207a.223.223,0,0,0-.031.358,1.743,1.743,0,0,0,1.122.565,3.683,3.683,0,0,0,.973-.083,3.27,3.27,0,0,1,1.623.068,10.889,10.889,0,0,0,2.982.6,8.125,8.125,0,0,0,1.5-.067,6.418,6.418,0,0,0,1.978-.588,1.174,1.174,0,0,1,.984-.048,8.58,8.58,0,0,1,.859.435,1.4,1.4,0,0,0,1.09.21c.227-.065.315-.018.456.185a2.49,2.49,0,0,1,.382,1.413c.01.37-.011.742.005,1.112.015.341.059.681.092,1.022a.694.694,0,0,1,.023.227c-.154.563-.308,1.127-.481,1.685a2.2,2.2,0,0,1-.739,1.139,1.465,1.465,0,0,0-.346.437c-.072.126-.135.26-.2.391a4.467,4.467,0,0,1-.762,1.11,2.54,2.54,0,0,0,.386.173,3.263,3.263,0,0,0,2.283-.239.769.769,0,0,1,.634-.079.349.349,0,0,0,.428-.167,1.073,1.073,0,0,0,.121-.214c.069-.207.136-.415.184-.627.095-.417.18-.836.261-1.256a5.406,5.406,0,0,1,.636-1.824,3.361,3.361,0,0,0,.444-.983c.032-.14.052-.283.077-.426a.234.234,0,0,1,.051,0,.644.644,0,0,1,.572.46c.077.213.131.435.193.654a1.655,1.655,0,0,0,.558.92,1.8,1.8,0,0,1,.39.37,2.193,2.193,0,0,0,1.581.983.235.235,0,0,1,.089.052,2.608,2.608,0,0,0,.26.182q.573.3,1.154.589a.114.114,0,0,0,.106-.022,1.076,1.076,0,0,0,.18-.274,1.711,1.711,0,0,0-.288-1.7,2.856,2.856,0,0,0-.384-.352,1.073,1.073,0,0,1,.14-.063c.124-.037.253-.059.374-.1a.215.215,0,0,0,.144-.331,1.023,1.023,0,0,0-.588-.532c-.171-.067-.352-.11-.525-.172a.281.281,0,0,1-.114-.1,3.082,3.082,0,0,0-.3-.4,4.091,4.091,0,0,0-.466-.339.348.348,0,0,1-.17-.255.808.808,0,0,1,.385-.806c.168-.11.337-.217.51-.32a2.809,2.809,0,0,0,1.052-1.028.934.934,0,0,1,.435-.4,6.8,6.8,0,0,0,1.744-1.2.534.534,0,0,1,.265-.163c.182-.031.362-.077.545-.1a10.42,10.42,0,0,1,2.1.027c.513.049,1.024.118,1.535.18.668.08,1.334.169,2,.241.591.063,1.183.122,1.776.158a14.931,14.931,0,0,0,2.151-.016,9.95,9.95,0,0,0,1.731-.279,16.114,16.114,0,0,1,3.329-.559,9.368,9.368,0,0,1,2.478.173,3.2,3.2,0,0,1,1.066.392.2.2,0,0,1,.1.17c.051.5.1,1,.171,1.5a9.679,9.679,0,0,1,.155,1.891,2.064,2.064,0,0,1-.257.922c-.477.832-.955,1.663-1.42,2.5a4.162,4.162,0,0,0-.511,1.261.75.75,0,0,1-.026.195c-.149.3-.3.6-.465.886-.082.145-.189.275-.3.428.361.056.7.117,1.042.161a3.961,3.961,0,0,0,1.387-.015,1.142,1.142,0,0,0,.9-.708c0-.009.017-.014.02-.015a2.417,2.417,0,0,0,.225.155.369.369,0,0,0,.554-.332,4.27,4.27,0,0,1,.042-.659,5.768,5.768,0,0,1,.419-1.673,7.037,7.037,0,0,1,1.782-2.427.843.843,0,0,1,.3-.161c.192-.066.391-.113.587-.169a.715.715,0,0,0,.5-.4,5.539,5.539,0,0,0,.271-.725,6.241,6.241,0,0,0,.112-.707.912.912,0,0,1,.771.344c.1.139.165.3.264.431.12.163.259.312.39.468a1.717,1.717,0,0,1,.248.3,4.478,4.478,0,0,1,.353,1.732c.025.365,0,.733,0,1.1,0,.429,0,.859.029,1.288a.815.815,0,0,1-.091.45c-.166.3-.34.6-.514.9-.137.236-.117.287.156.331a4.55,4.55,0,0,0,1.988-.1,1.293,1.293,0,0,0,.994-.779c.083.033.16.072.243.1a.239.239,0,0,0,.339-.226,1.391,1.391,0,0,0-.122-.724,8.864,8.864,0,0,1-.72-2.406,3.3,3.3,0,0,1,.073-1.242,3.458,3.458,0,0,1,.5-1,.6.6,0,0,0,.143-.483.213.213,0,0,1,.047-.2,1.062,1.062,0,0,0,.212-.956,4.284,4.284,0,0,0-.335-.748,4.09,4.09,0,0,1-.519-1.269.349.349,0,0,1,.019-.213c.458-.779.925-1.554,1.387-2.331a9.585,9.585,0,0,0,1.011-2.058c.223-.727.4-1.468.617-2.2a13.3,13.3,0,0,0,.522-3.459,3.619,3.619,0,0,0,2.012.448c.071.089.145.175.223.259a4.342,4.342,0,0,0,1.763,1.147A3.909,3.909,0,0,0,67.737,161a3.521,3.521,0,0,0,.99-3.579A.723.723,0,0,0,67.854,156.923Zm-4.682,1.351c-.056.053-.113.1-.173.154l-.038.028c-.039.027-.077.054-.117.079a3.3,3.3,0,0,1-.354.2c-.022-.044-.042-.088-.063-.133a4.788,4.788,0,0,1-.281-1.029,3.77,3.77,0,0,1-.009-.781,2.719,2.719,0,0,1,.13-.49,1.682,1.682,0,0,1,.094-.174l.048-.074.026-.03a1.387,1.387,0,0,1,.105-.1,1.427,1.427,0,0,1,.139-.081,1.326,1.326,0,0,1,.136-.037,1.464,1.464,0,0,1,.174,0,1.737,1.737,0,0,1,.224.063,1.617,1.617,0,0,1,.181.1l.038.026c.025.021.05.043.073.066s.069.07.1.107a1.707,1.707,0,0,1,.115.2,2.065,2.065,0,0,1,.086.316,2.43,2.43,0,0,1,0,.414,2.745,2.745,0,0,1-.131.475,2.689,2.689,0,0,1-.243.422l-.042.055-.045.052C63.288,158.157,63.232,158.217,63.172,158.274Z" transform="translate(0 -146.641)" fill="#fff"/>
    </g>
  </g>
</svg>
