<svg xmlns="http://www.w3.org/2000/svg" xmlns:xlink="http://www.w3.org/1999/xlink" width="94.166" height="51.321" viewBox="0 0 94.166 51.321">
  <defs>
    <clipPath id="clip-path">
      <rect id="Rectangle_40" data-name="Rectangle 40" width="84.272" height="51.321" fill="#17233d"/>
    </clipPath>
  </defs>
  <g id="Groupe_311" data-name="Groupe 311" transform="translate(-289.759 -4550.494)">
    <g id="Groupe_194" data-name="Groupe 194" transform="translate(299.652 4550.494)">
      <g id="Groupe_51" data-name="Groupe 51" clip-path="url(#clip-path)">
        <path id="Tracé_1613" data-name="Tracé 1613" d="M84.188,38.775a1.338,1.338,0,0,0-.145-1.216,12.044,12.044,0,0,0-9.995-5.319c-.106,0-.213,0-.32.005V30.673a1.578,1.578,0,0,0-1.3-1.553l-2.6-.472L67.149,17.811a1.578,1.578,0,0,0-.706-.965l-.923-.568c.14-.091.276-.186.406-.29a1.578,1.578,0,0,0,.6-1.235V9.182a1.579,1.579,0,0,0-.029-.3l-.14-.726a1.579,1.579,0,0,0-.607-.967,5.455,5.455,0,0,0-4.252-.973,5.385,5.385,0,0,0-3.434,2.258l-7.624.812a2.367,2.367,0,0,0,.248,4.721A2.413,2.413,0,0,0,50.938,14l6.451-.687a5.377,5.377,0,0,0,1.124,2.023c0,.006,0,.011.006.017,1.873,4.308,6.035,16.551,2.854,21.4-.908,1.385-2.41,2.058-4.594,2.058H47.953a6.554,6.554,0,0,1-5.8-2.958c-1.126-1.966-.861-4.579.761-7.585a1.577,1.577,0,0,0,.8-1.372V18.848a1.578,1.578,0,0,0-1.578-1.578H14.912a1.578,1.578,0,0,0-1.578,1.578v6.839c-3.209,1.172-9.026,4.541-13.2,14.068A1.577,1.577,0,0,0,0,40.387V43.44a1.578,1.578,0,0,0,1.578,1.578H3.957a10.7,10.7,0,0,0,21.39,0H62.453a10.7,10.7,0,1,0,20.233-5.252l.6-.164a1.338,1.338,0,0,0,.9-.826m-65.64-8.957h6.774a.907.907,0,0,1,0,1.815H18.549a.907.907,0,1,1,0-1.815m-3.9,18.957a4.155,4.155,0,0,1-4.131-3.756h8.263a4.156,4.156,0,0,1-4.131,3.756m10.67-10.549H18.549a.907.907,0,1,1,0-1.815h6.774a.907.907,0,0,1,0,1.815m3.054-3.3H15.494a.907.907,0,1,1,0-1.814H28.377a.907.907,0,1,1,0,1.814M73.148,48.775a4.15,4.15,0,0,1-3.986-5.308L75.986,41.6a4.148,4.148,0,0,1-2.838,7.175" transform="translate(0 -4.006)" fill="#202020"/>
        <path id="Tracé_1614" data-name="Tracé 1614" d="M55.839,11.286H40.273a1.161,1.161,0,0,1-1.161-1.161V1.161A1.161,1.161,0,0,1,40.273,0H55.839A1.161,1.161,0,0,1,57,1.161v8.963a1.161,1.161,0,0,1-1.161,1.161" transform="translate(-25.594 0)" fill="#fff"/>
      </g>
    </g>
    <path id="Tracé_1724" data-name="Tracé 1724" d="M16.87,0H3.259" transform="translate(287 4563.155)" fill="none" stroke="#151c36" stroke-linecap="round" stroke-width="1" opacity="0.255"/>
    <line id="Ligne_31" data-name="Ligne 31" x1="8.435" transform="translate(295.435 4566.373)" fill="none" stroke="#151c36" stroke-linecap="round" stroke-width="1" opacity="0.255"/>
    <line id="Ligne_34" data-name="Ligne 34" x1="8.435" transform="translate(291.217 4559.937)" fill="none" stroke="#151c36" stroke-linecap="round" stroke-width="1" opacity="0.255"/>
  </g>
</svg>
