<svg xmlns="http://www.w3.org/2000/svg" width="40.109" height="37.022" viewBox="0 0 40.109 37.022">
  <g id="Groupe_419" data-name="Groupe 419" transform="translate(-258.247 -113.16)">
    <path id="Tracé_1962" data-name="Tracé 1962" d="M297.475,151.2a7.826,7.826,0,0,0-5.609-6.658c-.567-.186-1.145-.238-1.085-1.122s-.518-1.355-1.4-1.328a1.283,1.283,0,0,0-1.349,1.425.846.846,0,0,1-.7.994,7.908,7.908,0,0,0-5.824,6.924,1.941,1.941,0,0,1-.233.732c-.923,1.47-.889,1.532.85,1.661.337.026.811-.256,1.009.293-2.683,2.808-2.683,2.808-4.764-.282a18.442,18.442,0,0,1-1.43-2.176c-1.36-2.8-3.993-2.842-6.383-2.565-2.006.23-1.313,2.56-1.87,3.922a24.123,24.123,0,0,0-.86,3.5c-.471,1.94-.954,3.881-1.43,5.821-1.237-3.611-2.1-7.165-2.944-10.721-.69-2.91-.683-2.939-3.567-2.4-.625.118-1.749-.175-1.632.968.115,1.111,1.093.764,1.755.594,1.266-.329,1.708.107,1.98,1.386.965,4.506,2.063,8.985,3.169,13.457.16.649.044,1.715,1,1.76,1.145.052.983-1.132,1.153-1.812,1.036-4.147,1.987-8.316,2.96-12.479.62-2.652,1-2.85,3.614-2.15a2.253,2.253,0,0,1,1.344,1.08c.855,1.279,1.723,2.55,2.584,3.823,2.353,3.486,2.542,3.653,5.319.479,2.207-2.523,4.652-2.931,8.017-2.228a7.563,7.563,0,0,0-5.055,2.824c-1.472,1.985-3.214,3.766-4.759,5.7-.73.913-1.258,1-2.014.065-.923-1.145-1.917-2.238-2.921-3.313-.429-.46-.753-1.31-1.553-1.025-.913.329-.567,1.25-.575,1.938-.029,2.678-.1,5.361.024,8.033.063,1.383-.426,1.632-1.676,1.608-4.147-.073-8.3-.044-12.445-.01-.714.005-1.914-.379-1.867.826.044,1.143,1.226.745,1.951.748,4.482.031,8.967-.073,13.446.06,1.849.055,2.283-.609,2.2-2.314-.131-2.547-.034-5.107-.034-8.054.962,1.088,1.572,1.8,2.2,2.489,1.781,1.938,2.85,1.9,4.563-.136,1.6-1.9,3.243-3.745,4.78-5.685a5.053,5.053,0,0,1,2.944-1.917c2.738-.6,5.107-2.387,8-2.513v-.8A1.68,1.68,0,0,1,297.475,151.2Zm-2.657,1.03c-1.8-.078-3.609-.021-5.416-.021-1.671,0-3.345-.055-5.013.018-1.041.047-1.438-.191-1.2-1.321a6.467,6.467,0,0,1,12.659.034C296.032,151.854,295.893,152.272,294.818,152.225Z" transform="translate(0 -21.362)" fill="#e34b1b"/>
    <path id="Tracé_1963" data-name="Tracé 1963" d="M270.676,113.16a6.428,6.428,0,1,0,6.386,6.362A6.486,6.486,0,0,0,270.676,113.16Zm-.084,11.237a4.809,4.809,0,1,1,4.853-4.814A4.848,4.848,0,0,1,270.592,124.4Z" transform="translate(-4.41 0)" fill="#e34b1b"/>
  </g>
</svg>
