<svg xmlns="http://www.w3.org/2000/svg" width="30.983" height="18.359" viewBox="0 0 30.983 18.359">
  <g id="tripadvisor-logotype" transform="translate(0)">
    <g id="Groupe_29" data-name="Groupe 29" transform="translate(0 0)">
      <path id="Tracé_1505" data-name="Tracé 1505" d="M18.987,20.369a16.611,16.611,0,0,1,2.548.6,17.438,17.438,0,0,1,4.135,1.885.634.634,0,0,0,.317.091c1.523.006,3.045,0,4.566.005.123,0,.245.013.367.02,0,.03,0,.042,0,.049-.071.109-.143.217-.214.326a9.34,9.34,0,0,0-1.218,2.537.292.292,0,0,0,.032.277A7.766,7.766,0,0,1,23.2,38.441a7.21,7.21,0,0,1-1.853-.238,7.773,7.773,0,0,1-3.805-2.246c-.138-.147-.268-.3-.416-.467l-1.659,2.474L13.83,35.525a.414.414,0,0,0-.055.029.253.253,0,0,0-.032.034A7.691,7.691,0,0,1,8.934,38.31a7.512,7.512,0,0,1-3.2-.18A7.774,7.774,0,0,1,.1,31.834a7.5,7.5,0,0,1,.139-3.068,7.8,7.8,0,0,1,1.208-2.623.3.3,0,0,0,.035-.225A8.668,8.668,0,0,0,.4,23.578c-.118-.186-.258-.359-.389-.538v-.062a.66.66,0,0,0,.077.008q2.337,0,4.673,0a.4.4,0,0,0,.2-.065,16.785,16.785,0,0,1,3.486-1.692,18.944,18.944,0,0,1,2.706-.733,21.676,21.676,0,0,1,2.691-.353A22.834,22.834,0,0,1,18.987,20.369ZM17.034,30.658A6.183,6.183,0,1,0,23.085,24.5,6.192,6.192,0,0,0,17.034,30.658ZM7.757,24.476a6.176,6.176,0,1,0,6.19,6.2A6.183,6.183,0,0,0,7.757,24.476Zm.307-1.614a7.889,7.889,0,0,1,7.43,6.742A7.86,7.86,0,0,1,22.806,22.9a17.587,17.587,0,0,0-6.889-1.436A19.077,19.077,0,0,0,8.064,22.862Z" transform="translate(0 -20.082)" fill="#fff"/>
      <path id="Tracé_1506" data-name="Tracé 1506" d="M65.447,41.31a3.83,3.83,0,1,1-3.839,3.826A3.817,3.817,0,0,1,65.447,41.31Zm2.5,3.826a2.5,2.5,0,0,0-5.007-.01,2.5,2.5,0,1,0,5.007.01Z" transform="translate(-42.242 -34.637)" fill="#fff"/>
      <path id="Tracé_1507" data-name="Tracé 1507" d="M16.033,41.31a3.83,3.83,0,1,1-3.843,3.822A3.816,3.816,0,0,1,16.033,41.31Zm2.494,3.818a2.505,2.505,0,0,0-5.01.008,2.505,2.505,0,1,0,5.01-.008Z" transform="translate(-8.358 -34.637)" fill="#fff"/>
      <path id="Tracé_1508" data-name="Tracé 1508" d="M71.053,49.443a1.269,1.269,0,1,1-1.272,1.281A1.27,1.27,0,0,1,71.053,49.443Z" transform="translate(-47.846 -40.214)" fill="#fff"/>
      <path id="Tracé_1509" data-name="Tracé 1509" d="M21.6,49.407a1.281,1.281,0,1,1,0,2.562,1.281,1.281,0,1,1,0-2.562Z" transform="translate(-13.933 -40.189)" fill="#fff"/>
    </g>
  </g>
</svg>
