<svg xmlns="http://www.w3.org/2000/svg" width="54.278" height="56.823" viewBox="0 0 54.278 56.823">
  <g id="Groupe_341" data-name="Groupe 341" transform="translate(-186 -875)">
    <g id="Groupe_340" data-name="Groupe 340" transform="translate(186 875)">
      <path id="Tracé_1794" data-name="Tracé 1794" d="M359.824,299.6c.005,0,.007,0,.009-.007a.089.089,0,0,0,.107-.036c.046-.069.095,0,.134.035a.116.116,0,0,0,.179-.072c.042-.274-.372-.27-.483-.066a.1.1,0,0,0,.048.132C359.816,299.594,359.816,299.6,359.824,299.6Z" transform="translate(-355.229 -276.264)" fill="#272c2d"/>
      <path id="Tracé_1795" data-name="Tracé 1795" d="M360.457,300.1c.044.13.088.26.131.39s.043.285.152.353a.073.073,0,0,0,.112-.045c.043-.129-.054-.262-.094-.378s-.077-.225-.116-.337a.057.057,0,0,0,.011-.092.3.3,0,0,0-.062-.037.078.078,0,0,0-.067-.02A.1.1,0,0,0,360.457,300.1Z" transform="translate(-355.528 -276.546)" fill="#272c2d"/>
      <path id="Tracé_1796" data-name="Tracé 1796" d="M360.923,298.841c.142.018.187-.2.045-.221S360.781,298.823,360.923,298.841Z" transform="translate(-355.712 -275.954)" fill="#272c2d"/>
      <path id="Tracé_1797" data-name="Tracé 1797" d="M395.237,291.83c-1.475,1.126-2.964,2.216-4.494,3.237q-1.146.765-2.327,1.474l-.033.02a3.759,3.759,0,0,1-2.207-2.379,4.074,4.074,0,0,1-.136-.834c-.009-.139-.013-.278-.013-.418,0-.419.03-.839.042-1.258a7.051,7.051,0,0,0-.019-.836l.19-.16c.1.241.213.458.3.684a2.723,2.723,0,0,1,.192.746c.027.257.03.515.041.773a4.8,4.8,0,0,0,.078.768,4.3,4.3,0,0,0,.223.74,5.225,5.225,0,0,0,.354.724,5.51,5.51,0,0,0,.463.668,4.785,4.785,0,0,0,.549.572c.147.127.426-.044.34-.22-.3-.61-.782-1.111-1.076-1.727a6.552,6.552,0,0,1-.426-2.191,3.994,3.994,0,0,0-.143-.73,1.931,1.931,0,0,0-.206-.462,1.256,1.256,0,0,0-.149-.194.959.959,0,0,0-.414-.26h0l.022-.018a77.13,77.13,0,0,0,5.949-5.6q.943-.987,1.854-2.01c.669-.753,1.347-1.533,2.018-2.326.635-.751,1.262-1.513,1.858-2.3q.614-.808,1.177-1.639c-.052.094-.1.188-.15.285h0a8.792,8.792,0,0,0,1.023-1.229c.105-.143.21-.287.315-.426.238-.315.5-.627.739-.95a.685.685,0,0,0,.229-.184.474.474,0,0,0,.106-.257.49.49,0,0,0,0-.05c.026-.044.056-.085.08-.13.067-.122-.085-.234-.189-.17a5.075,5.075,0,0,0-.691-.685c-.342-.348-1.271-1.54-1.946-.971a.653.653,0,0,0-.216.1.666.666,0,0,0-.143.128.56.56,0,0,0-.089.147c-1.166,1.425-2.4,2.8-3.679,4.124s-2.6,2.611-3.931,3.863q-.968.907-1.941,1.811-1.489,1.38-3,2.719c-.968.859-1.942,1.706-2.931,2.522h0a9.662,9.662,0,0,0-.6-.827c-.1-.136-.207-.272-.3-.414a3.872,3.872,0,0,1-.262-.444c-.1-.2-.185-.4-.267-.6-.246-.606-.44-1.236-.655-1.851-.076-.216-.165-.514-.283-.825-.024-.063-.048-.126-.074-.188-.052-.126-.108-.251-.17-.372a3.123,3.123,0,0,0-.2-.342,1.9,1.9,0,0,0-.245-.287,1.034,1.034,0,0,0-.628-.3c1.959-1.893,3.871-3.911,5.628-5.968a20.085,20.085,0,0,0,2.088-2.973,32.079,32.079,0,0,0,1.6-3.187c.319-.725.622-1.459.921-2.2a.5.5,0,0,0,.183-.709,2.169,2.169,0,0,0-.217-.3c-.082-.1-.171-.19-.263-.281-.182-.18-.375-.352-.542-.523l-.007-.007-.011-.011a2.689,2.689,0,0,0-.293-.294.477.477,0,0,0-.4-.106.372.372,0,0,0-.2.05.006.006,0,0,0-.009,0l0,0a.694.694,0,0,0-.292.39q-.33.441-.652.885c-.43.591-.852,1.184-1.276,1.775s-.847,1.179-1.281,1.76c-.652.872-1.326,1.73-2.055,2.56q-.787.894-1.615,1.75t-1.7,1.669q-1.734,1.627-3.611,3.072l-.025.019-.075.056h0a1.664,1.664,0,0,0-.045-.242,2.307,2.307,0,0,0-.181-.47,4.175,4.175,0,0,0-.415-.645c-.1-.133-.2-.259-.3-.374s-.2-.214-.3-.321c-.286-.3-.581-.6-.853-.913a2.569,2.569,0,0,1-.649-1.519,5.034,5.034,0,0,1-.019-.593c.94-.969,1.857-1.958,2.739-2.972a53.046,53.046,0,0,0,3.714-4.764,40.017,40.017,0,0,0,3.053-5.224.136.136,0,0,0,.015-.075.12.12,0,0,0-.147-.092h0c.148-.056.247-.183.335-.429a2.635,2.635,0,0,0,.087-.293.9.9,0,0,0-.136-.827c-.208-.238-.509-.3-.689-.573-.112-.173-.176-.311-.383-.4a1.286,1.286,0,0,0-1.009.067.521.521,0,0,0-.494.153.748.748,0,0,0-.244.427c-1.879,2.031-3.6,4.178-5.367,6.244-.217.254-.433.512-.648.771a45.752,45.752,0,0,1-4.712,5.266,43.236,43.236,0,0,1-4.4,3.372q-.764.517-1.541,1.009c-1.552.986-3.132,1.9-4.692,2.793q-.78.445-1.551.88a.158.158,0,0,0-.083.123,1.21,1.21,0,0,0-.978,1.139,2.139,2.139,0,0,1-.348.22c-.121.063-.245.122-.364.19a1.518,1.518,0,0,0-.331.247,1.146,1.146,0,0,0-.251.388,3.134,3.134,0,0,0-.136.967,20.524,20.524,0,0,1-.293,2.481c-.093.465-.217.926-.358,1.385-.374,1.224-.865,2.431-1.186,3.66-.081.306-.15.616-.205.926a8.17,8.17,0,0,0-.13,1.412h0c0,2.716,1.354,4.881,3.03,6.87,1.3,1.547,2.8,2.989,4.02,4.5,1.573,1.957,2.853,4.146,4.334,6.218.245.342.507.718.785,1.1a.11.11,0,0,0,.037.051c.135.187.275.376.417.565a12.749,12.749,0,0,0,1.934,2.107,6.681,6.681,0,0,0,.553.415,4.832,4.832,0,0,0,1.2.595,4.183,4.183,0,0,0,1.1.2c.122.006.244.007.366,0a7.168,7.168,0,0,0,1.462-.211c.243-.057.485-.123.727-.193s.483-.145.723-.219c.481-.148.959-.295,1.432-.406a14.084,14.084,0,0,1,2.6-.277c.349-.015.7-.033,1.05-.06.176-.014.351-.031.527-.052q.443-.054.873-.148a10.4,10.4,0,0,0,1.679-.521c.272-.109.542-.23.807-.359.342-.168.675-.348,1-.54.549-.32,1.077-.672,1.6-1.031q.619-.426,1.235-.86c.181-.127.361-.25.542-.368s.364-.23.55-.336a8.246,8.246,0,0,1,.834-.41c.118-.051.233-.1.358-.151.145-.053.291-.1.437-.157s.291-.1.436-.158a5.728,5.728,0,0,0,1.908-1.155,5.85,5.85,0,0,0,1.18-1.5,5.7,5.7,0,0,0,.622-1.759,3.152,3.152,0,0,0,.5-1.712,2.924,2.924,0,0,0-.034-.451,2.275,2.275,0,0,0-.537-1.186l.062-.041c1.525-1.034,3.015-2.136,4.477-3.288,3.256-2.565,6.376-5.382,9.453-8.258v-.438a113.4,113.4,0,0,1-14.188,11.637c-.286.193-.576.377-.867.558l-.007-.009c-.05-.052-.165-.05-.178.036,0,.031-.005.062-.008.092-5.712,3.481-12.3,4.775-18.139,7.28.127-.285.228-.584.342-.872a.062.062,0,0,0-.092-.076c0-.076.012-.153.01-.228a68.578,68.578,0,0,0,9.462-3.063,49.932,49.932,0,0,0,8.975-4.588,143.81,143.81,0,0,0,14.689-11.439v-.64c-4.879,4.086-9.6,8.222-14.778,11.6-.475.31-.956.608-1.44.9.114-.823-1.043-1.685-1.874-1.533a.075.075,0,0,0-.01.149,2.418,2.418,0,0,1,1.122.476,2.792,2.792,0,0,1,.588,1l0,0a51.3,51.3,0,0,1-7.631,3.717c-3.036,1.187-6.169,1.979-9.135,3.09a1.919,1.919,0,0,0-.083-.349,3.36,3.36,0,0,0-1.4-1.609,79.663,79.663,0,0,0,8.353-2.871,63.646,63.646,0,0,0,8.822-4.191c.069-.04.136-.083.2-.123a.2.2,0,0,0,.066-.04,89.942,89.942,0,0,0,8.474-6.014c2.864-2.182,5.857-4.331,8.723-6.638v-.665c-.569.407-1.138.814-1.7,1.23C401.078,287.183,398.186,289.578,395.237,291.83Zm4.894-16.5c-.077.112-.157.224-.237.337.081-.13.156-.261.234-.391l.209-.257C400.268,275.124,400.2,275.229,400.13,275.331Zm-6.017,7.022a75.7,75.7,0,0,1-7.587,7.53,37.455,37.455,0,0,1-9.17,6.039q-4.016,1.812-7.941,3.577a.093.093,0,0,0-.067.013c-.02.013-.039.028-.058.042q-.911.409-1.818.815a1.453,1.453,0,0,0-.135-1.017c-.049-.111-.1-.213-.136-.314a.173.173,0,0,0,.178.035,101.534,101.534,0,0,0,10.248-3.843c3.2-1.413,5.8-3.692,8.464-5.96,5.264-4.486,10.167-9.265,13.75-15.23a.071.071,0,0,0,.008-.067,3.011,3.011,0,0,0,.526.346C398.222,276.992,396.357,279.788,394.113,282.353Zm4.728-10.03s0-.009.007-.013c.553-.116.862.366,1.168.68l.488.5c.117.121.67.535.061.289a7.66,7.66,0,0,1-1.216-.793,3.272,3.272,0,0,1-.42-.29.314.314,0,0,1-.169-.275Zm-8.389,8.862a82.539,82.539,0,0,0,7.95-8.325,4.163,4.163,0,0,0,1.111.856c.086.06.177.133.274.21a.112.112,0,0,0-.128.048c-3.545,5.906-8.978,10.794-14.156,15.2-2.705,2.3-5.331,4.512-8.608,5.882-3.217,1.346-6.525,2.342-9.635,3.687a.179.179,0,0,0-.114.148,1.849,1.849,0,0,1-.093-.443c-.022-.246.071-.209,0-.44a.923.923,0,0,0-.354-.474c-.088-.072-.194-.12-.284-.187a1.881,1.881,0,0,1-.543-.681c-.031-.051-.062-.1-.093-.142a39.812,39.812,0,0,0,15.734-7.531s0,.008,0,.012a.053.053,0,0,0,.045.035l.042,0a.058.058,0,0,0,.064-.061c.065.053.176.132.187.138.065.042.128.085.19.131a2.974,2.974,0,0,1,.515.482c.26.306.378.684.614,1a.092.092,0,0,0,.161-.058,2.194,2.194,0,0,0-1.009-1.564,1.838,1.838,0,0,0-.547-.323l.153-.117C384.873,286.355,387.659,283.768,390.452,281.185Zm-24.17,19.155c-.135-.018-.381-.287-.491-.369-.39-.293-.816-.566-1.181-.884a1.724,1.724,0,0,1-.541-1.5,1.008,1.008,0,0,1,.508-.932c.512-.189.708.271.971.594a2.259,2.259,0,0,0,.48.453c.42.3.409.4.469.905a2.664,2.664,0,0,0,.179.657c.035.065.072.128.112.19Q367.126,299.9,366.282,300.339Zm15.96-12.54c-.139.113-.277.227-.416.339a45.158,45.158,0,0,1-16.388,8.076l-.018-.012h0c-.066-.067-.135-.131-.206-.192a4.3,4.3,0,0,0,.91-.248.048.048,0,0,0-.02-.094,4.839,4.839,0,0,0-1.055.2c-.238-.191-.49-.368-.732-.557.132-.047.264-.1.4-.148a1.876,1.876,0,0,0,.625-.3c.043-.039,0-.092-.047-.092a1.985,1.985,0,0,0-.7.212c-.152.061-.3.122-.454.186a3,3,0,0,1-.638-.714,5.764,5.764,0,0,0,1.1-.337,2.3,2.3,0,0,0,1.04-.627c.031-.046-.019-.1-.068-.1a4.67,4.67,0,0,0-1.125.507c-.342.146-.692.261-1.044.373a2.493,2.493,0,0,1-.225-.658l.017-.02c.008-.009,0-.024-.014-.016l-.008.009a2.988,2.988,0,0,1-.045-.381c.232-.17.464-.338.692-.512a3.9,3.9,0,0,0,.656-.555c.035-.042-.006-.115-.062-.089a6.334,6.334,0,0,0-1.292.937c0-.674.159-1.358.147-2.057a55.5,55.5,0,0,0,5.705-2.9,44.121,44.121,0,0,0,8.143-5.259q.614-.557,1.225-1.136a3.175,3.175,0,0,0,.237,3.562,5.313,5.313,0,0,0,.844.785c-.266.164-.534.324-.818.465a13.818,13.818,0,0,1-2.227.891.011.011,0,0,0,0,.02,11.543,11.543,0,0,0,3.264-1.209c.16.115.323.227.487.336-1.075.5-2.1,1.1-3.151,1.615-.013.007-.006.026.008.02a32.022,32.022,0,0,0,3.261-1.556l.061.04A17.312,17.312,0,0,0,382.243,287.8Zm-20.512,5.648c0-.025.008-.053.012-.079a3.167,3.167,0,0,0,.725,1.307,1.755,1.755,0,0,0-.072.43,3.049,3.049,0,0,1-.678-.508A4.089,4.089,0,0,1,361.731,293.448Zm-.392-1.551c-.073-.052-.151-.111-.232-.162l.014-.013c.1-.031.2-.069.3-.1.124.1.251.19.368.3a1.5,1.5,0,0,1,.116.121c-.022.036-.043.071-.062.109,0-.043-.006-.087-.009-.13s-.069-.044-.083,0-.025.108-.037.161A1.9,1.9,0,0,0,361.339,291.9Zm.965,2.073a3.447,3.447,0,0,1-.421-1.4,2.915,2.915,0,0,1,.13-.414.941.941,0,0,0,.208.186.073.073,0,0,0,.106-.07.664.664,0,0,0-.186-.378,1.213,1.213,0,0,1,.184-.245c.018-.018-.008-.041-.028-.029a1.081,1.081,0,0,0-.23.2,1.333,1.333,0,0,0-.45-.266c.373-.128.746-.263,1.117-.41l.037.361a4.314,4.314,0,0,0-.068,2.642,2.389,2.389,0,0,0-.12.223A3.158,3.158,0,0,1,362.3,293.97Zm.52.5a3.448,3.448,0,0,0,.17.323,3.647,3.647,0,0,1-.288-.281,1.959,1.959,0,0,1,.055-.2C362.781,294.364,362.8,294.417,362.824,294.468Zm.322.76c-.03.071-.059.143-.084.217-.138-.066-.273-.131-.4-.2a2.628,2.628,0,0,1,0-.384A2.867,2.867,0,0,0,363.146,295.228Zm17.074-9.459c.056-.041.111-.083.164-.126.227.232.47.472.727.7C380.808,286.158,380.508,285.97,380.22,285.769Zm.959.221c-.084-.067-.166-.133-.246-.2-.1-.091-.229-.193-.359-.3.1-.085.19-.172.279-.263C380.947,285.47,381.055,285.732,381.179,285.99Zm-1.617-4.239a3.456,3.456,0,0,0-.932.624c-.047.045.011.135.071.107a3.423,3.423,0,0,0,.927-.625,4.1,4.1,0,0,1,.417.852c.247.714.429,1.453.682,2.168.028.08.058.163.089.247-.133.074-.261.153-.39.232-.492-.433-1-.981-.832-1.557.022-.074-.1-.085-.121-.015-.238.692.261,1.2.712,1.657l.037.038-.216.137c-.173-.127-.34-.259-.5-.4a2.687,2.687,0,0,1-1-2.111c0-.338.043-.666.05-.991a3.328,3.328,0,0,0,.8-.666Q379.462,281.6,379.562,281.751Zm-.26-.386a3.412,3.412,0,0,0-.746.61c0-.078-.007-.155-.016-.233a5.455,5.455,0,0,0,.526-.6c.012-.018-.016-.034-.029-.02a5.076,5.076,0,0,0-.5.6,1.87,1.87,0,0,0-.044-.224c.181-.172.363-.342.544-.517C379.126,281.11,379.215,281.239,379.3,281.366Zm4.98-6.541c-2.268,2.582-4.7,5.124-7.183,7.443-2.335,2.186-5.286,3.7-8,5.249q-1.938,1.1-3.953,2.057a14.052,14.052,0,0,1-3.535,1.5c-.095.017.034-.4.064-.444.081-.121.532-.292.673-.382.935-.594,2.074-.88,3.055-1.4,1.388-.732,2.734-1.541,4.047-2.4,1.378-.9,2.928-1.482,4.362-2.33a25.751,25.751,0,0,0,3.739-2.718,40.082,40.082,0,0,0,6.054-6.793q1.436-1.977,2.726-4.053a27.934,27.934,0,0,0,2.3-4.069.613.613,0,0,0,.18.1.76.76,0,0,0,.142.033A29.377,29.377,0,0,1,384.282,274.825Zm3.5-10.173a6.382,6.382,0,0,1,.717.68c.151.151.3.3.454.451q.1.1.2.2-.067.425-.252.218a.425.425,0,0,1-.12-.089c.022-.06.047-.119.067-.179s-.061-.073-.091-.033-.046.065-.069.1a2.522,2.522,0,0,0-.291-.444,3.349,3.349,0,0,0-.4-.28,1.291,1.291,0,0,1-.264-.2C387.569,264.93,387.59,264.79,387.781,264.652Zm-12.932,14.413c.3-.222.6-.447.89-.676a47.734,47.734,0,0,0,6.694-6.364,33.07,33.07,0,0,0,4.878-6.954c0,.012.006.023.01.035.152.364.586.467.841.746a3.916,3.916,0,0,1,.3.452c-.838,1.2-1.48,2.537-2.237,3.761-.948,1.534-1.951,3.037-3.019,4.492a39.118,39.118,0,0,1-6.178,6.775,25.167,25.167,0,0,1-3.453,2.474c-1.321.78-2.76,1.311-4.04,2.122a49.2,49.2,0,0,1-7.944,4.264,5.237,5.237,0,0,0-.864-1.569,4.438,4.438,0,0,0-.768-1.018,71.981,71.981,0,0,0,7.642-3.922,65.99,65.99,0,0,0,7.1-4.5A.244.244,0,0,0,374.849,279.065Zm-16.7,9.9a1.777,1.777,0,0,0,0,.347.057.057,0,0,0-.092.025,4.7,4.7,0,0,0-.2.82,1.644,1.644,0,0,1-.06-1.414c0,.049,0,.1,0,.146s.085.054.094,0c.058-.349.115-.694.175-1.037.033.021.064.043.1.062.065.035.138-.056.1-.112s-.1-.132-.152-.2c.028-.154.058-.306.09-.459a3.318,3.318,0,0,0,.421.523A1.3,1.3,0,0,0,358.145,288.96Zm.05-6.748.566-.331c0,.308-.021.616-.024.924l-.126.091c0-.009,0-.019,0-.029a.732.732,0,0,0-.034-.245.3.3,0,0,0-.044-.1c-.019-.02-.05-.028-.059-.046-.029-.057-.125-.023-.1.041,0,.014-.008.061-.007.095a1.582,1.582,0,0,1,0,.234c-.03.239-.109.257-.224.241A2.812,2.812,0,0,0,358.195,282.212Zm-.088-1.118c.013-.375.164-.8.191-1.194a5.935,5.935,0,0,1,.422,1.352c.009.057.014.114.02.171l-.584.359A5.764,5.764,0,0,1,358.107,281.094Zm13.53-3.206a3.982,3.982,0,0,0,2.274,1.254,64.758,64.758,0,0,1-6.6,4.14c-2.222,1.228-4.566,2.234-6.755,3.426a6.159,6.159,0,0,1-.949-.453,6.907,6.907,0,0,0,.784-.35,5.8,5.8,0,0,0,.788-.428.059.059,0,0,0-.053-.1,6.268,6.268,0,0,0-.9.421,5.893,5.893,0,0,0-.706.405,2.632,2.632,0,0,1-.321-.248.107.107,0,0,0,.036,0,4.32,4.32,0,0,0,2.005-1.351.057.057,0,0,0-.078-.083c-.314.214-.594.476-.908.69a8.243,8.243,0,0,1-1.071.6.083.083,0,0,0-.049.09,1.832,1.832,0,0,1-.518-.955c-.005-.027-.007-.055-.012-.082h.008a3.962,3.962,0,0,0,2.154-1.186.047.047,0,0,0-.064-.069c-.309.2-.582.448-.9.635a4.741,4.741,0,0,1-1.2.5.069.069,0,0,0-.014.007,11.943,11.943,0,0,1,.051-1.4l.16-.087a.077.077,0,0,0,.089-.043l0-.007c2-1.121,3.939-2.481,5.885-3.73a38.445,38.445,0,0,0,6.334-5.077c-.009.04-.016.079-.022.119a3.17,3.17,0,0,0-.029.517C371.08,276.1,370.928,277.013,371.638,277.888Zm-11.856,9.256c-.137.079-.275.156-.41.236a1.092,1.092,0,0,0-.585.161c-.159-.288-.331-.564-.493-.848.045-.19.1-.378.149-.567A2.1,2.1,0,0,0,359.781,287.144Zm-1.514-1.421a1.671,1.671,0,0,0,.121.3c-.069.162-.132.326-.192.492a5.092,5.092,0,0,1-.285-.6c-.058-.149-.107-.3-.151-.453a4.761,4.761,0,0,1,.334-.816A5.087,5.087,0,0,0,358.268,285.723Zm-.206,1.2c-.046.155-.087.31-.124.468-.111-.137-.221-.273-.324-.416a3.714,3.714,0,0,1,0-.853c.007-.054.017-.107.026-.16A4.982,4.982,0,0,0,358.062,286.925Zm.524,1.406c.628-.943,1.373-.1,1.687.309a3.624,3.624,0,0,1,.794,2c-.039,1.2-.923,1.047-1.426.479-.11-.123-.2-.3-.3-.433a3.938,3.938,0,0,1-.712-1.13,4.5,4.5,0,0,0-.226-.612A1.683,1.683,0,0,1,358.586,288.331Zm13.986-12.722c.431.5.934.938,1.34,1.461a6.965,6.965,0,0,1,.752,1.518l-.076.057c-.144-.078-.289-.147-.432-.209a.051.051,0,0,0-.024-.047,6.8,6.8,0,0,1-1.2-.792,4.461,4.461,0,0,1-.809-1.282.053.053,0,0,0-.1.027,2.566,2.566,0,0,0,.776,1.507,2.528,2.528,0,0,1-.955-.913,2.592,2.592,0,0,1-.447-1.185,8.746,8.746,0,0,1,0-1.63q.256-.256.509-.515A2.044,2.044,0,0,0,372.573,275.609Zm8.951-15.425c-1.593,2.464-2.859,5.025-4.63,7.37a61.473,61.473,0,0,1-5.809,6.265,39.372,39.372,0,0,1-6.389,5.19c-1.855,1.207-3.813,2.316-5.621,3.562a3.746,3.746,0,0,0,.024-.889,62.633,62.633,0,0,0,5.691-3.714,44.211,44.211,0,0,0,4.616-4.13c.044.065.087.13.134.193s.149,0,.131-.072a2,2,0,0,0-.1-.287q.585-.583,1.175-1.171c1.98-1.967,4.217-3.706,5.9-5.979a42.3,42.3,0,0,0,4-6.539,1.469,1.469,0,0,0,.547.136,1.106,1.106,0,0,0,.4.006A.173.173,0,0,0,381.524,260.183Zm-1.994-2.056a.119.119,0,0,0,.019,0c.476-.148.93-.423,1.28.04a1.472,1.472,0,0,0,.278.365c.234.179.534.248.571.582.035.319-.088.667-.482.624-.375-.041-.435-.5-.739-.673-.227-.126-.5-.163-.714-.31A.525.525,0,0,1,379.53,258.128Zm-17.07,17.233a57.909,57.909,0,0,0,6.179-4.512,52.881,52.881,0,0,0,4.99-5.622c1.834-2.17,3.758-4.332,5.529-6.6a.661.661,0,0,0,.025.061c.208.4.628.417.988.636.258.157.228.373.349.545-1.485,2.111-2.6,4.4-4.137,6.459-1.657,2.225-3.858,3.867-5.817,5.773-.4.392-.8.786-1.2,1.177a3.126,3.126,0,0,0-.912-.917c-.2-.128-.758-.288-.8.108,0,.013.013.018.022.009a.7.7,0,0,1,.5-.046.872.872,0,0,1,.243.177,3.868,3.868,0,0,1,.49.5,4.039,4.039,0,0,1,.265.365,46.807,46.807,0,0,1-4.638,4.133c-1.774,1.33-3.641,2.491-5.5,3.633a4,4,0,0,0-.778-1.78.881.881,0,0,0-.123-.259,1.552,1.552,0,0,0-1.066-.505.025.025,0,0,0-.016-.035,1.879,1.879,0,0,0-.27-.04A31.933,31.933,0,0,0,362.46,275.361Zm-6.041,3.542c.237.1.482.177.733.259.829.27.779.73.622,1.486a1.931,1.931,0,0,0-.063.766c.062.406.356.81.171,1.253-.5,1.183-1.553.386-1.8-.266a9.125,9.125,0,0,1-.173-1.465c-.055-.273-.267-.547-.3-.809A.992.992,0,0,1,356.419,278.9Zm-3.333,8.713c.017.116.037.23.063.344q-.126.27-.239.541c-.015-.071-.03-.141-.042-.213C352.938,288.064,353.012,287.84,353.086,287.616Zm-.123,1.923q-.091.28-.168.563a2.8,2.8,0,0,1-.138-.48c.056-.211.115-.42.179-.63A5.2,5.2,0,0,0,352.963,289.539Zm-.142,1.141c.072.232.149.467.237.7a7.454,7.454,0,0,0-.265,1.009c-.049-.13-.1-.259-.142-.389.032-.362.06-.724.123-1.082C352.789,290.836,352.806,290.758,352.821,290.68Zm-.127-1.743c-.015.018-.028.036-.041.053.04-.138.082-.277.124-.415.008.065.017.13.026.194-.055.141-.107.282-.157.424a.911.911,0,0,1,.069-.243A.013.013,0,0,0,352.694,288.937Zm-.149,1.127c.012-.05.026-.1.039-.149.035.122.076.241.112.355l.029.094q-.065.261-.117.525c-.037.189-.076.385-.111.584-.049-.18-.1-.361-.139-.543C352.409,290.635,352.479,290.342,352.544,290.064Zm-.249,1.33c.03.128.061.255.094.383.013.048.025.1.037.146-.02.166-.034.332-.04.5A2.648,2.648,0,0,1,352.3,291.394Zm-.023,1.345c-.017-.105-.026-.209-.037-.313a.836.836,0,0,0,.1.13.039.039,0,0,0,.049,0,3.189,3.189,0,0,0,.031.463.05.05,0,0,0,.1,0c.034-.159.06-.32.081-.482.039.132.083.263.13.391a3.3,3.3,0,0,0,.061.921,9.462,9.462,0,0,1-.5-1.029C352.284,292.8,352.277,292.768,352.273,292.739Zm.246,1.078a3.4,3.4,0,0,0,.363.519,2.6,2.6,0,0,0,.024.536A9.183,9.183,0,0,1,352.519,293.817Zm.335.166a.042.042,0,0,0,.037-.036c.017-.184.029-.363.041-.542.026.049.053.1.082.142a4.181,4.181,0,0,0-.107.529Zm2.518,4.571c0-.009,0-.017,0-.025,0-.041,0-.082,0-.123.153.2.315.395.484.585,0,.035,0,.07,0,.105Q355.609,298.827,355.372,298.554Zm.73.818c0-.04-.007-.079-.01-.12l.066.068c0,.038,0,.075,0,.112Zm.28.3c0-.046-.009-.092-.014-.138.049.049.1.1.145.147,0,.046,0,.091,0,.137Zm6.859,8.579c-.054-.069-.192-.009-.176.1-.519-.764-1.023-1.536-1.53-2.3a3.54,3.54,0,0,0,.573-.127c.072.172.149.341.231.509l-.2.121c-.115.069,0,.23.114.167l.176-.1c.1.2.205.4.309.6a1.1,1.1,0,0,0,.053.518.1.1,0,0,0,.126.06c.031-.014.061-.03.092-.044.081.163.164.326.25.487A.181.181,0,0,1,363.241,308.253Zm.271-.119c-.087-.164-.175-.326-.265-.486.08-.039.158-.081.237-.123.073.156.15.309.227.462A1.751,1.751,0,0,1,363.511,308.134Zm.292.035q.107.2.22.4c-.084.037-.168.07-.254.1-.049-.116-.1-.231-.161-.345.015-.009.031-.013.047-.024A.878.878,0,0,0,363.8,308.169Zm-.635-.665-.043-.078c-.052-.1-.1-.194-.157-.292.088-.057.17-.12.254-.18.068.152.139.3.208.455C363.343,307.44,363.254,307.471,363.168,307.5Zm-.285-.528c-.083-.155-.168-.309-.255-.463.107-.058.211-.12.315-.184.07.154.139.312.209.47C363.062,306.856,362.971,306.913,362.883,306.976Zm.408,1.459c.024,0,.046-.012.069-.017.061.108.122.214.188.318-.058.015-.116.032-.176.044C363.344,308.665,363.318,308.549,363.291,308.435Zm5.52,3.523a.868.868,0,0,0-.3-.443,3.11,3.11,0,0,0-1.17-.426c-.595-.152-1.171-.2-1.18-1.112,0-.282.164-.557.155-.845a.906.906,0,0,0-.185-.628c-.169-.2-.31-.176-.5-.315-.477-.349-.845-.624-.806-1.249.054-.883.49-1.843-.071-2.643a3.706,3.706,0,0,0-2.485-1.029,5.457,5.457,0,0,1-2.33-.582,2.457,2.457,0,0,1-.931-2.189,5.39,5.39,0,0,0-.386-2.664c-.835-1.31-3.362-1.325-2.993-3.339a.058.058,0,0,0-.11-.033c-.593.978.219,1.922,1.007,2.432a5.018,5.018,0,0,1,1.806,1.445,4.338,4.338,0,0,1,.378,2.187,4.842,4.842,0,0,0,.182,1.231c-.12-.146-.242-.291-.363-.435a6.415,6.415,0,0,0-.851-.928.025.025,0,0,0-.038.033,7.021,7.021,0,0,0,.829,1.12c.227.282.456.562.708.821a2,2,0,0,0,.567.57c1.178.783,2.863.289,4,1.163,1.308,1.006.293,2.223.7,3.453a1.261,1.261,0,0,0,.52.673c.566.374,1.042.551.926,1.4a3.285,3.285,0,0,0-.11.611c.052.944.971,1.057,1.734,1.271.556.156.935.24,1.069.97a7.206,7.206,0,0,1-.082.95,1.527,1.527,0,0,0,.039.3c-.066-.01-.132-.019-.2-.033a5.194,5.194,0,0,1-2.58-1.841,1.033,1.033,0,0,0,.238-.234.076.076,0,0,0-.074-.109,1.1,1.1,0,0,0-.344.139c-.042-.046-.082-.093-.122-.138-.056-.064-.108-.13-.163-.193a.526.526,0,0,0,.458-.431.047.047,0,0,0-.081-.04.849.849,0,0,1-.568.245c-.08-.1-.163-.19-.241-.287.04-.02.08-.04.12-.061a1.61,1.61,0,0,0,.458-.314.059.059,0,0,0-.048-.1,1.606,1.606,0,0,0-.523.186c-.056.026-.109.058-.163.087-.112-.141-.224-.281-.332-.423a5.949,5.949,0,0,0,.734-.491c.033-.026.01-.083-.033-.067a6.126,6.126,0,0,0-.837.378c-.091-.121-.181-.244-.27-.367.061-.039.122-.079.185-.116a2.229,2.229,0,0,0,.538-.345.072.072,0,0,0-.06-.119,1.4,1.4,0,0,0-.618.257c-.066.04-.128.083-.19.126-.111-.154-.22-.31-.33-.466a1.638,1.638,0,0,0,.184-.052c.046.063.087.13.136.19a.055.055,0,0,0,.1-.049c-.02-.067-.048-.131-.072-.2a1.641,1.641,0,0,0,.276-.144c.074.123.145.25.226.367a.053.053,0,0,0,.094-.046c-.053-.141-.121-.278-.184-.417a1.582,1.582,0,0,0,.253-.248.03.03,0,0,0-.039-.044c-.089.056-.181.107-.275.155q-.125-.265-.267-.525a.412.412,0,0,0,.015-.044c.01-.048-.033-.072-.073-.062-.077-.139-.153-.278-.234-.415.031-.017.062-.033.093-.051s.008-.089-.038-.075-.071.026-.107.038c-.092-.155-.182-.309-.276-.461.164-.123.324-.252.477-.393.028-.025-.012-.059-.039-.045-.182.09-.355.19-.524.3l-.264-.433a2.973,2.973,0,0,0,.415-.3c.048-.043-.012-.115-.066-.1a3.94,3.94,0,0,0-.789.4c-.087-.15-.178-.3-.271-.442a2.077,2.077,0,0,0,.67-.388c.036-.033-.009-.095-.053-.077-.246.1-.486.2-.732.288l-.012-.02c-.033-.047-.116-.01-.093.046l0,.007a3.321,3.321,0,0,1-.577.14.1.1,0,0,0-.026.009c-.56-.842-1.126-1.675-1.731-2.478a36.224,36.224,0,0,0-2.6-2.969c0-.029-.008-.058-.012-.086a.088.088,0,0,0-.131-.066l-.216-.23c0-.048-.01-.1-.015-.144l0-.037c.114.106.227.214.341.314.045.039.117-.019.08-.069-.143-.193-.294-.387-.453-.579-.015-.149-.032-.3-.043-.446a.077.077,0,0,0-.154.011c0,.071.005.141.008.211l-.178-.2a9.059,9.059,0,0,0-.138-1.011c0-.009-.018-.008-.019,0a7.585,7.585,0,0,0-.014.823c-.033-.036-.067-.069-.1-.1a4.355,4.355,0,0,0-.158-1.03h0a3.431,3.431,0,0,0-.048.817q-.224-.22-.456-.422c.024-.165.063-.327.093-.5l0,0a.877.877,0,0,0-.242.369c-.076-.063-.152-.125-.229-.184-.006,0-.015,0-.01.009.063.1.139.194.208.29a1.294,1.294,0,0,0-.033.145l-.031-.036a1.8,1.8,0,0,1-.145-1.46c.028-.07-.075-.125-.106-.053a1.968,1.968,0,0,0-.15,1.024,15.146,15.146,0,0,1-1.274-1.829.044.044,0,0,0,.033-.05,4.964,4.964,0,0,1-.039-1.588.075.075,0,0,0-.148-.024,3.143,3.143,0,0,0,.006,1.4c-.143-.262-.275-.529-.4-.8a.044.044,0,0,0,.083-.015c.02-.127.037-.252.054-.378a.057.057,0,0,0,.05-.083l-.03-.053c.031-.221.066-.439.111-.655a.04.04,0,0,0,.021-.042c0-.01,0-.02-.007-.03a4.722,4.722,0,0,1,.232-.775c.044-.107-.115-.182-.159-.073-.061.149-.118.3-.169.46q-.059-.2-.13-.391a7.8,7.8,0,0,1,.189-1.237,3.378,3.378,0,0,0,.322.582c.031.044.09,0,.08-.043a4.928,4.928,0,0,0-.3-.9c.02-.063.039-.127.063-.191.036-.1-.1-.161-.141-.065l-.013.038c-.042-.1-.084-.206-.123-.309-.046-.123-.1-.256-.162-.4.043-.2.09-.392.141-.587a3.386,3.386,0,0,0,.417.847.053.053,0,0,0,.092-.05c-.133-.408-.277-.8-.4-1.2.047-.173.1-.346.15-.518.012-.038-.05-.056-.065-.019-.049.121-.093.245-.137.368-.053-.175-.1-.351-.143-.531q.1-.316.222-.627a3.065,3.065,0,0,0,.675,1.346c.034.037.114.008.09-.049a11.251,11.251,0,0,1-.622-1.53c-.007-.026-.01-.053-.017-.079.032-.078.061-.158.094-.235l0,0c-.034.067-.066.135-.1.2-.032-.135-.06-.27-.083-.408q.081-.246.16-.493a2.412,2.412,0,0,0,.465,1.125.045.045,0,0,0,.077-.042,7.092,7.092,0,0,1-.423-1.463c.028-.091.055-.182.082-.273a5.4,5.4,0,0,0,.245.918.062.062,0,0,0,.119-.031c-.071-.453-.155-.9-.234-1.349.031-.121.063-.242.092-.364a15.2,15.2,0,0,0,.277-1.534,3.589,3.589,0,0,0,.838.831c.866.638,1.7,1.248,1.417,2.533-.184.821-.612,1.588-.757,2.417a3.864,3.864,0,0,0,.819,3.149c.828.962,2.033.969,3.217,1.269a1.83,1.83,0,0,1,1.508,2.5,3.854,3.854,0,0,0-.167,1.778,1.342,1.342,0,0,0,.588.867c.187.12.6.137.743.278.243.248.012.64.034.916a1.531,1.531,0,0,0,.654,1.182.113.113,0,0,0,.1.133l.135.012a4.628,4.628,0,0,0,1.556.424,2.76,2.76,0,0,1,2.443,1.5,2.455,2.455,0,0,1-.2,2.6c-.622,1-.417,1.668.771,1.923a1.45,1.45,0,0,1,1.2,1.535,1.662,1.662,0,0,0,.1.76,1.045,1.045,0,0,0,.289.407A1.677,1.677,0,0,0,368.811,311.958Zm-.153-4.111a3.36,3.36,0,0,0-.559-.142,2.037,2.037,0,0,1-.513-.095l-.2-.5q-.4-.409-.034-.738a6.413,6.413,0,0,0,.606-1.339,2.789,2.789,0,0,0-.751-2.5c-1.021-.992-3.533-.394-4.142-1.655-.244-.5.116-1.158-.16-1.608-.162-.264-.447-.277-.7-.4-1.876-.867-.149-2.53-.807-3.919-.407-.858-1.5-1.014-2.325-1.246a4.487,4.487,0,0,1-2.73-2.286.05.05,0,0,0,.049-.028,3.5,3.5,0,0,0,.181-.546,2.042,2.042,0,0,0,.2.339,1.93,1.93,0,0,0-.053.426.073.073,0,0,0,.136.028,1.618,1.618,0,0,0,.1-.24,1.857,1.857,0,0,0,.363.292c.042.025.077-.035.046-.066a3.441,3.441,0,0,1-.351-.421c.008-.032.017-.063.024-.1a1.273,1.273,0,0,0,.373.481c.041.031.117,0,.092-.061-.13-.295-.273-.562-.38-.841.017-.1.034-.19.054-.28a.086.086,0,0,0-.159-.059,1.987,1.987,0,0,1-.057-.49c0-.065-.111-.074-.116-.008a3.006,3.006,0,0,0,.058.854c-.023.074-.045.149-.066.224a2.8,2.8,0,0,1-.191-.409c.073-.373.121-.754.195-1.114a.074.074,0,0,0-.145-.03c-.051.225-.115.454-.177.684a2.491,2.491,0,0,1,.1-1.244s0-.006-.007,0a2.323,2.323,0,0,0-.186,1.614,4.437,4.437,0,0,0-.135.885,3.967,3.967,0,0,1-.22-.571c-.479-1.639.819-3.112.51-4.721a2.3,2.3,0,0,0-.562-1.153c-.513-.547-1.551-.952-1.893-1.691q.057-.614.071-1.229a2.035,2.035,0,0,1,.212-.96c.255-.614.313-.471.794-.81.009.033.016.065.029.1a5.529,5.529,0,0,1,.384,1.465,2.677,2.677,0,0,0,.238,1.036,1.753,1.753,0,0,0,1.313.907,1.2,1.2,0,0,0,.465-.023.212.212,0,0,0,.138.037.233.233,0,0,1,.285-.138c.259.089.032.8.04,1.01a4.7,4.7,0,0,0-.379.7c-.1-.4-.175-.81-.266-1.217,0-.012-.023-.009-.024,0a4.568,4.568,0,0,0,.138,1.61,3.95,3.95,0,0,0-.19.912c-.022-.041-.044-.083-.064-.126a4.242,4.242,0,0,1-.389-1.619.01.01,0,0,0-.019,0,3.834,3.834,0,0,0,.477,2.3,2.289,2.289,0,0,0,.238.829c.03.059.13.014.123-.049-.015-.129-.033-.255-.051-.381a2.222,2.222,0,0,0,.189.171,5.4,5.4,0,0,0-.083.953,1.789,1.789,0,0,0,.018,2.04,2.552,2.552,0,0,0,.23,1.1c.019.04.094.031.085-.021-.047-.259-.087-.511-.113-.762a3.573,3.573,0,0,0,.508.572,1.215,1.215,0,0,0,.4.871c.042.038.1-.022.074-.067a2,2,0,0,1-.238-.614,2.193,2.193,0,0,0,.535.3c.073.027.142-.066.079-.119-.221-.189-.441-.374-.647-.573a1.521,1.521,0,0,1,.063-.364c.033-.111-.137-.131-.173-.026a1.579,1.579,0,0,0-.058.22,3.46,3.46,0,0,1-.407-.516c-.054-.084-.109-.179-.162-.28a3.644,3.644,0,0,1,.169-1.079,2.912,2.912,0,0,0,.491,1.225,8.315,8.315,0,0,1,.683.979.949.949,0,0,0,.327.457,1.06,1.06,0,0,0,.761.043,1.176,1.176,0,0,0,.3.147.005.005,0,0,0,.007-.007,1.629,1.629,0,0,0-.114-.2,2.082,2.082,0,0,0,.332-.147,3.6,3.6,0,0,0,.277.25,1.041,1.041,0,0,0,.461.309,2.383,2.383,0,0,0-.02.243c-.066.235-.112.471-.156.675a4.887,4.887,0,0,0-.113.847,3.453,3.453,0,0,1-.448-1.967c0-.008-.014-.01-.018,0a2.615,2.615,0,0,0,.519,2.56,1.446,1.446,0,0,0,.247.555c.041.054.159.026.143-.053-.009-.047-.018-.094-.027-.14a2.2,2.2,0,0,0,.633.367,1.366,1.366,0,0,0,.278.563.054.054,0,0,0,.094-.049,3.942,3.942,0,0,1-.106-.438,1.8,1.8,0,0,0,.313.036,1.9,1.9,0,0,0,.011,1.178c.023.06.133.061.14-.014.045-.5.044-.98.124-1.461l.1.046a5.142,5.142,0,0,0,.831.81c-.63.3-.657,2.242-.487,2.66.311.762,1.3,1.261,1.939,1.739.4.3.765.638,1.19.475a.183.183,0,0,0,.109-.014l.246-.111a3.033,3.033,0,0,0,.937,2.426.072.072,0,0,0,.107-.092,8.722,8.722,0,0,1-.693-1.321,4.167,4.167,0,0,1-.167-.714,1.827,1.827,0,0,1-.039-.365l.392-.177,1.013-.458a3.658,3.658,0,0,0,1.381,3.832,1.036,1.036,0,0,0-.136.041.151.151,0,0,0-.071.239c-.574.014-1.1.35-.928,1.027.148.6.836,1.141,1.232,1.594.354.406.745,1.036,1.365,1.054.037,0,.07,0,.1-.006a3.964,3.964,0,0,1-.673,1.568,5.846,5.846,0,0,1-1.367.944,2.224,2.224,0,0,1-.227-1.081,2.564,2.564,0,0,0-.066-.815A1.173,1.173,0,0,0,368.659,307.847Zm3.969,3.371-.279.476c-.218.057-.438.12-.659.19.073-.149.144-.3.214-.446Q372.266,311.331,372.628,311.218Zm-.566-.106c.033-.068.067-.132.1-.2.244-.044.487-.091.729-.145l-.111.189C372.541,311,372.3,311.054,372.062,311.112Zm-.535,1.1q.356-.143.7-.3c-.157.265-.34.528-.474.808-.2.05-.405.105-.607.165A7.624,7.624,0,0,0,371.527,312.21Zm-1.025.113c.073-.176.142-.356.211-.533l.819-.239c-.1.161-.2.324-.294.487C370.989,312.126,370.743,312.221,370.5,312.323Zm1.252-1.132c-.306.081-.609.173-.908.272.014-.034.028-.068.044-.1.036-.082.074-.164.112-.246.3-.046.6-.1.891-.152Zm-.883-.274a8.47,8.47,0,0,0-.835.164c.361-.34.83-.555,1.225-.865C371.12,310.442,370.992,310.678,370.871,310.917Zm-1.153.257a2.325,2.325,0,0,1,.456-.272Zm.018.264a1.808,1.808,0,0,1,.181-.236,5.678,5.678,0,0,0,.839-.052l-.1.214-.1.2c-.334.119-.661.246-.977.382a.086.086,0,0,0,.057.162c.253-.076.508-.15.764-.224-.1.2-.189.4-.265.6-.248.114-.488.234-.718.359-.013.007,0,.024.01.021.208-.045.419-.1.631-.157a2.7,2.7,0,0,0-.085.341.076.076,0,0,0,.141.048,3.95,3.95,0,0,0,.261-.481c.222-.068.445-.141.665-.22a5.637,5.637,0,0,0-.279.6c-.429.139-.85.3-1.252.461A2.384,2.384,0,0,1,369.736,311.437Zm20.236-5.657c-.257.16-.512.324-.765.49a3.291,3.291,0,0,0,.264-.475l.14-.08q.228-.13.455-.266C390.03,305.559,390,305.67,389.972,305.78Zm-.374-.281c.072-.181.139-.364.206-.544.225-.145.447-.3.656-.459-.1.216-.2.434-.286.654C389.984,305.268,389.792,305.385,389.6,305.5Zm.709.068q.071-.175.137-.354c.063-.04.126-.082.187-.123A5.015,5.015,0,0,1,390.307,305.568Zm.515-.819-.273.169c.08-.232.16-.465.245-.695q.2-.171.375-.351A4.971,4.971,0,0,1,390.823,304.749Zm.432-1.215c-.087.062-.175.124-.26.188.013-.03.025-.061.039-.091.034-.074-.087-.13-.122-.055q-.081.169-.167.341l-.469.37-.283.2c.093-.221.187-.443.272-.668a10.367,10.367,0,0,0,1.072-.791A4.816,4.816,0,0,1,391.254,303.534Zm.105-.742-.149.09a2.474,2.474,0,0,0,.1-.428l.055-.038C391.368,302.542,391.367,302.667,391.359,302.792Zm.1-2.44a7.9,7.9,0,0,1,.315,1.295.313.313,0,0,0-.438.187c0-.043,0-.086-.009-.128.132-.079.261-.162.383-.252a.062.062,0,0,0-.058-.108c-.12.041-.237.09-.352.142a2.653,2.653,0,0,0-.284-.853Q391.239,300.495,391.46,300.351Zm-.519,2.621a.1.1,0,0,0,.042.05c-.2.131-.394.268-.588.407.01-.033.023-.066.031-.1a.725.725,0,0,0-.007-.26.085.085,0,0,0-.008-.028.18.18,0,0,0-.01-.024c.157-.094.315-.188.472-.285C390.893,302.813,390.913,302.893,390.941,302.972Zm-18.2,4.913c.3-.039.61-.078.911-.142.056-.012.034-.1-.019-.095-.031,0-.062.005-.094.007,3.05-.921,6.079-2.135,9.153-3.213a42,42,0,0,0,7.89-3.542c.03.246.082.491.115.735.007.05.013.1.018.15-.157.087-.313.174-.469.258a11.235,11.235,0,0,0-1.483.868.023.023,0,0,0,.022.04,10.2,10.2,0,0,0,1.409-.658c.18-.092.365-.182.55-.275.02.163.044.325.074.485-.2.13-.4.26-.6.384-.6.371-1.247.7-1.806,1.117a.022.022,0,0,0,.022.039,10.556,10.556,0,0,0,1.85-.954.03.03,0,0,0,.019.008l0,0,0,0-.2.536c-.124.088-.248.176-.373.261-.522.354-1.074.68-1.557,1.076-.028.023.007.068.04.055a10.743,10.743,0,0,0,1.741-1l0,0-.067.175c-.121.231-.229.427-.259.5-.01.022-.021.045-.03.067l-.562.394c-.306.2-.615.39-.919.589a.044.044,0,0,0,.042.077,10.746,10.746,0,0,0,1.23-.614c-.083.177-.164.358-.232.54a16.243,16.243,0,0,0-1.547.884.01.01,0,0,0,.009.017,6.883,6.883,0,0,0,1.447-.628c-.022.077-.041.155-.056.234a.077.077,0,0,0,.083.09c-.427.281-.848.567-1.272.847-.047.031,0,.1.05.068.685-.438,1.384-.867,2.062-1.324,0,.025-.01.05-.015.074a5.933,5.933,0,0,1-2.181,1.428,12.982,12.982,0,0,0-3.048,1.549c-.934.657-1.854,1.325-2.839,1.9a11.171,11.171,0,0,1-3.341,1.356c-1.293.268-2.612.169-3.9.329-.2.025-.407.063-.611.106.037-.065.069-.134.109-.191a2.4,2.4,0,0,1,.434-.462c.106-.088-.055-.267-.163-.179a2.588,2.588,0,0,0-.474.49.841.841,0,0,0-.211.412,26.49,26.49,0,0,1-4.055,1.029,2.2,2.2,0,0,1-.094-.208c.364-.077.738-.166,1.111-.271l-.006.015c-.019.068.081.113.126.062s.077-.1.116-.146c.251-.074.5-.154.746-.241-.008.024-.017.048-.024.072-.019.068.077.105.122.06a2.181,2.181,0,0,0,.21-.246c.166-.065.332-.132.492-.2.048-.022.042-.108-.02-.1-.106.019-.212.041-.318.064.124-.2.233-.418.352-.619l.537-.913c.131-.042.264-.082.395-.125a.059.059,0,0,0-.024-.114c-.084.011-.168.026-.252.039l.1-.17a.124.124,0,0,0,.014-.043c.2-.05.409-.1.611-.165a.047.047,0,0,0-.019-.091c-.526.071-1.047.163-1.567.257a.1.1,0,0,0-.187-.021l-.036.061-.347.062c-.189.033-.38.061-.572.089.129-.278.253-.559.36-.845a1.891,1.891,0,0,0,.288-.345,3.79,3.79,0,0,0,.346-.72,19.182,19.182,0,0,0,2.685-.49.06.06,0,0,0-.023-.116,18.492,18.492,0,0,0-2.61.449,3.379,3.379,0,0,0,.164-.806C372.46,307.969,372.6,307.925,372.743,307.885Zm-1.168-2.718c.422.426.884,1.3.56,1.911,0-.009-.009-.019-.015-.029a.169.169,0,0,0-.3.1c0,.079,0,.165-.01.252-.576.207-1.318-.93-1.643-1.3a2.434,2.434,0,0,1-.418-.473l-.115-.133q.1-.381.2-.762c.19-.174.868.019,1.158.007l0,0-.014-.013A2.432,2.432,0,0,1,371.575,305.167Zm7.8-4.253c-2.8,1.108-5.655,1.958-8.4,2.994-.321-.542-.948-.92-1.282-1.471a3.33,3.33,0,0,1-.237-2.537c2.832-1.274,5.707-2.549,8.61-3.861a33.949,33.949,0,0,0,7.624-4.9,6.052,6.052,0,0,0-.257,2.364c-.185.079-.368.167-.548.259a5.955,5.955,0,0,1,.146-1.879.034.034,0,0,0-.064-.022,3.869,3.869,0,0,0-.345,2.04c-.469.251-.926.525-1.38.782-.125.071,0,.236.124.169.422-.228.856-.453,1.28-.694a5.111,5.111,0,0,0,.156.736c-.344.168-.677.365-1,.541-.106.056,0,.19.1.139.314-.157.649-.3.966-.475a3.422,3.422,0,0,0,1.918,2.216.075.075,0,0,0,.084-.123,6.593,6.593,0,0,1-1.708-2.264c.078-.049.158-.1.231-.151a.061.061,0,0,0-.059-.107c-.079.026-.155.06-.234.092a4.541,4.541,0,0,1-.182-.76c.181-.108.361-.219.533-.337.16,1.5.853,2.932,2.251,3.295A63.494,63.494,0,0,1,379.37,300.914Z" transform="translate(-351.541 -257.506)" fill="#272c2d"/>
      <path id="Tracé_1798" data-name="Tracé 1798" d="M420.061,337.828c.361-.129.726-.252,1.073-.413a.04.04,0,1,0-.028-.074c-.37.107-.725.255-1.08.4A.05.05,0,1,0,420.061,337.828Z" transform="translate(-382.256 -293.328)" fill="#272c2d"/>
      <path id="Tracé_1799" data-name="Tracé 1799" d="M389.183,352.759c-.4.062-.8.132-1.2.2-.084.015-.076.144.009.128.4-.072.809-.144,1.213-.226C389.268,352.853,389.247,352.749,389.183,352.759Z" transform="translate(-367.867 -300.248)" fill="#272c2d"/>
      <path id="Tracé_1800" data-name="Tracé 1800" d="M391.176,354.824a5.541,5.541,0,0,0-.7.818,2.182,2.182,0,0,0-.454.841.076.076,0,0,0,.13.062,3.826,3.826,0,0,0,.465-.748c.193-.316.413-.612.631-.912A.047.047,0,0,0,391.176,354.824Z" transform="translate(-368.808 -301.168)" fill="#272c2d"/>
      <path id="Tracé_1801" data-name="Tracé 1801" d="M393.212,355.888l.331.363c.087.1.179.256.317.273a.074.074,0,0,0,.089-.074c0-.131-.152-.244-.237-.339l-.329-.365A.111.111,0,1,0,393.212,355.888Z" transform="translate(-370.224 -301.569)" fill="#272c2d"/>
      <path id="Tracé_1802" data-name="Tracé 1802" d="M381.321,337.634a8.624,8.624,0,0,1-.334-1.3c-.014-.058-.114-.048-.122.011A3.131,3.131,0,0,0,381.937,339a.075.075,0,0,0,.112-.1A11.857,11.857,0,0,1,381.321,337.634Z" transform="translate(-364.691 -292.862)" fill="#272c2d"/>
      <path id="Tracé_1803" data-name="Tracé 1803" d="M394.985,298.653c.041.047.134,0,.11-.06a2.294,2.294,0,0,0-2.07-1.3c-.06,0-.076.076-.018.089A3.5,3.5,0,0,1,394.985,298.653Z" transform="translate(-370.132 -275.361)" fill="#272c2d"/>
      <path id="Tracé_1804" data-name="Tracé 1804" d="M383.154,316.51c-.858.548-1.7,1.116-2.571,1.623-.353.205-.713.4-1.073.584q.163-.419.318-.843c.322-.175.64-.356.953-.546-.063.186-.125.373-.175.561a.029.029,0,0,0,.054.019c.11-.225.208-.456.3-.692q.4-.251.792-.519c-.017.047-.036.093-.051.14s.041.05.055.02c.038-.079.07-.16.105-.239.46-.322.907-.658,1.331-1.017a.043.043,0,1,0-.051-.07c-.377.248-.751.49-1.127.728.052-.131.1-.262.156-.393.022-.055-.06-.1-.082-.042-.069.174-.141.346-.209.52q-.388.245-.777.481.15-.419.288-.842.437-.284.859-.591a.06.06,0,1,0-.07-.1c-.235.137-.466.276-.7.414.08-.245.159-.489.244-.729,0-.007-.009-.013-.012-.006-.1.262-.214.525-.325.789-.337.2-.677.4-1.015.6.127-.357.253-.714.383-1.068.023-.063-.069-.111-.093-.047-.156.408-.316.816-.477,1.224-.168.1-.337.194-.506.291.056-.16.112-.319.167-.479.109-.062.219-.119.326-.182.041-.024.007-.1-.036-.076-.082.038-.16.081-.241.12l.084-.239c0-.008-.009-.015-.013-.007l-.1.26c-.2.1-.4.2-.6.3l.028-.107c.017-.064-.083-.084-.1-.02l-.055.192c-.925.485-1.825,1.013-2.745,1.509-.019.01,0,.036.018.026.889-.46,1.792-.89,2.676-1.357-.045.158-.09.316-.136.475l-.071.039a.12.12,0,0,0-.113.062,9.031,9.031,0,0,1-3.14,1.217.058.058,0,0,0,.008.116,8.372,8.372,0,0,0,3.142-1.116l.046-.025a.13.13,0,0,0,.026.012l.013,0q-.1.362-.2.727c-.718.376-1.448.732-2.2,1.061a.052.052,0,1,0,.035.1c.7-.249,1.4-.54,2.088-.864-.051.205-.1.411-.144.617-.01.052.062.063.078.017q.117-.351.219-.706c.116-.055.232-.107.347-.165-.011.034-.024.066-.035.1s.028.032.035.012c.017-.045.033-.09.05-.135.153-.076.3-.16.455-.24-.1.279-.21.557-.309.837-.51.262-1.024.514-1.535.769-.052.026-.028.106.03.084.475-.184.952-.39,1.426-.616-.1.283-.194.566-.282.85-.188.079-.375.159-.567.232a.074.074,0,1,0,.05.14,16.851,16.851,0,0,0,3.492-1.687c.051-.034.009-.121-.049-.092-.94.481-1.862.958-2.821,1.364q.2-.451.378-.907a20.744,20.744,0,0,0,3.8-2.382A.048.048,0,1,0,383.154,316.51Zm-2.893.16c.338-.2.674-.4,1-.61-.121.291-.238.583-.347.876q-.474.285-.95.558Q380.116,317.084,380.262,316.671Zm-1.039-.044c.2-.106.394-.219.59-.33-.062.163-.123.326-.185.49-.175.1-.348.2-.524.3C379.143,316.934,379.183,316.781,379.223,316.627Zm-.394,1.492c.057-.208.114-.416.168-.624a.477.477,0,0,0,.194-.017.085.085,0,0,0,.029-.142.358.358,0,0,0-.077-.044l.367-.2c-.1.271-.2.544-.294.816Zm.442-.238c.1-.272.2-.545.3-.819.164-.09.326-.184.488-.277q-.165.419-.327.841Q379.5,317.756,379.272,317.882Z" transform="translate(-362.327 -283.292)" fill="#272c2d"/>
      <path id="Tracé_1805" data-name="Tracé 1805" d="M395.932,331.071a.031.031,0,1,0-.036-.05,17.4,17.4,0,0,1-4.5,2c-.093.025-.044.158.048.133A13.748,13.748,0,0,0,395.932,331.071Z" transform="translate(-369.401 -290.491)" fill="#272c2d"/>
      <path id="Tracé_1806" data-name="Tracé 1806" d="M398.148,332.592c-1.353.61-2.676,1.244-4.052,1.764s-2.78.861-4.133,1.351a.011.011,0,0,0,0,.021,18.517,18.517,0,0,0,4.207-1.16,23.6,23.6,0,0,0,4.034-1.866A.063.063,0,0,0,398.148,332.592Z" transform="translate(-368.778 -291.196)" fill="#272c2d"/>
      <path id="Tracé_1807" data-name="Tracé 1807" d="M376.319,295.167a26.051,26.051,0,0,1-7.3,4.4.01.01,0,1,0,.006.019,19.375,19.375,0,0,0,7.328-4.391C376.368,295.179,376.34,295.15,376.319,295.167Z" transform="translate(-359.379 -274.403)" fill="#272c2d"/>
      <path id="Tracé_1808" data-name="Tracé 1808" d="M377.5,296.938a.027.027,0,1,0-.031-.044c-1.867,1.224-3.7,2.432-5.649,3.45-.074.039-.035.155.041.117A32.135,32.135,0,0,0,377.5,296.938Z" transform="translate(-360.622 -275.178)" fill="#272c2d"/>
      <path id="Tracé_1809" data-name="Tracé 1809" d="M370.623,301.4a33.994,33.994,0,0,0,7.368-4.1.025.025,0,1,0-.029-.04,56.929,56.929,0,0,1-7.369,4.054C370.538,301.344,370.566,301.426,370.623,301.4Z" transform="translate(-360.077 -275.345)" fill="#272c2d"/>
      <path id="Tracé_1810" data-name="Tracé 1810" d="M378.091,299.026c-1.345.7-2.644,1.475-3.974,2.17-1.254.656-2.6,1.2-3.789,1.94-.01.006,0,.019.008.016a24.563,24.563,0,0,0,4.034-1.867,39.106,39.106,0,0,0,3.773-2.163C378.2,299.086,378.152,298.994,378.091,299.026Z" transform="translate(-359.969 -276.134)" fill="#272c2d"/>
      <path id="Tracé_1811" data-name="Tracé 1811" d="M418.959,303.386a31.107,31.107,0,0,0,5.308-5.734c.009-.013-.014-.026-.024-.013a41.863,41.863,0,0,1-5.3,5.726C418.925,303.377,418.946,303.4,418.959,303.386Z" transform="translate(-381.782 -275.512)" fill="#272c2d"/>
      <path id="Tracé_1812" data-name="Tracé 1812" d="M386.18,328.33c.014,0,.019-.019,0-.022A.011.011,0,0,0,386.18,328.33Z" transform="translate(-367.081 -289.277)" fill="#272c2d"/>
      <path id="Tracé_1813" data-name="Tracé 1813" d="M387.485,324.612a.048.048,0,1,0,.033.091,32.333,32.333,0,0,0,7.965-3.781.021.021,0,1,0-.024-.033A39.153,39.153,0,0,1,387.485,324.612Z" transform="translate(-367.655 -285.946)" fill="#272c2d"/>
      <path id="Tracé_1814" data-name="Tracé 1814" d="M406.846,334.628a.041.041,0,1,0-.048-.066,31.973,31.973,0,0,1-9.151,4c-.043.013-.02.076.023.062C400.809,337.7,404.239,336.767,406.846,334.628Z" transform="translate(-372.22 -292.079)" fill="#272c2d"/>
      <path id="Tracé_1815" data-name="Tracé 1815" d="M368.141,294.553a24.5,24.5,0,0,0,5.748-4.007c.031-.03-.014-.077-.047-.049a37.809,37.809,0,0,1-5.727,3.984C368.07,294.505,368.094,294.577,368.141,294.553Z" transform="translate(-358.967 -272.306)" fill="#272c2d"/>
      <path id="Tracé_1816" data-name="Tracé 1816" d="M366.156,316.11a.068.068,0,0,0,.124,0c.126-.273-.155-.455-.344-.589a1.367,1.367,0,0,1-.627-1.188c0-.038-.06-.037-.067,0a1.231,1.231,0,0,0,.167.967C365.627,315.62,366.047,315.72,366.156,316.11Z" transform="translate(-357.675 -282.994)" fill="#272c2d"/>
      <path id="Tracé_1817" data-name="Tracé 1817" d="M361.562,302.175l.067.014c.163.035.221-.25.052-.257l-.069,0A.126.126,0,0,0,361.562,302.175Z" transform="translate(-355.994 -277.439)" fill="#272c2d"/>
      <path id="Tracé_1818" data-name="Tracé 1818" d="M366.788,315.62l0,0a.3.3,0,0,0,.1-.02c.009,0,.047-.019.017-.009a.644.644,0,0,0,.064-.018.081.081,0,0,0,.052-.08.172.172,0,0,0-.184-.139c-.121,0-.152.087-.2.177S366.728,315.708,366.788,315.62Z" transform="translate(-358.312 -283.462)" fill="#272c2d"/>
      <path id="Tracé_1819" data-name="Tracé 1819" d="M367.734,317.646a.26.26,0,0,0,.177-.191.573.573,0,0,0,.02-.057c.041-.131-.195-.166-.208-.031a.494.494,0,0,0,0,.068.108.108,0,0,1-.044.044A.089.089,0,1,0,367.734,317.646Z" transform="translate(-358.754 -284.328)" fill="#272c2d"/>
      <path id="Tracé_1820" data-name="Tracé 1820" d="M375.942,330.654a.468.468,0,0,0-.042-.134.073.073,0,0,0-.1-.017.5.5,0,0,0-.093.111C375.586,330.793,375.984,330.86,375.942,330.654Z" transform="translate(-362.374 -290.256)" fill="#272c2d"/>
      <path id="Tracé_1821" data-name="Tracé 1821" d="M376.8,331.655a.046.046,0,0,0-.079.019c-.11.364-.5-.009-.681-.064a.421.421,0,0,0-.175-.017c0-.1.007-.2.01-.3,0-.122-.19-.1-.2.019a2.34,2.34,0,0,1-.045.48c-.041.152.2.191.243.041s.347-.026.43,0a1.031,1.031,0,0,0,.254.04.351.351,0,0,0,.234-.051c.011.083.012.179-.054.211-.086.042-.094.173.013.191a.1.1,0,0,0,.088-.174c-.073-.077.055-.244.094-.309C377,331.651,376.858,331.605,376.8,331.655Z" transform="translate(-362.352 -290.58)" fill="#272c2d"/>
      <path id="Tracé_1822" data-name="Tracé 1822" d="M385.984,345.3a.12.12,0,0,0-.078-.22.267.267,0,0,0-.223.242.114.114,0,0,0,.045.171c.241.118.477.254.722.364a.135.135,0,0,0,.125-.24c-.2-.108-.419-.2-.629-.3Z" transform="translate(-366.852 -296.801)" fill="#272c2d"/>
      <path id="Tracé_1823" data-name="Tracé 1823" d="M387.685,345.225a.773.773,0,0,1-.082-.036c.024.023,0-.042.007-.06a.048.048,0,0,0-.073-.046.235.235,0,0,0-.01.369C387.7,345.566,387.868,345.309,387.685,345.225Z" transform="translate(-367.65 -296.8)" fill="#272c2d"/>
      <path id="Tracé_1824" data-name="Tracé 1824" d="M386.325,343.379a.261.261,0,0,0-.038.279.2.2,0,0,0,.2.122.18.18,0,0,0,.146-.048.059.059,0,0,0-.018-.093.364.364,0,0,1-.041-.023c-.024-.044-.063-.085-.047-.111C386.588,343.392,386.4,343.269,386.325,343.379Z" transform="translate(-367.121 -296.02)" fill="#272c2d"/>
      <path id="Tracé_1825" data-name="Tracé 1825" d="M399.337,346.57a46.029,46.029,0,0,0,6.853-2.691c.033-.017.006-.063-.028-.053-2.346.788-4.588,1.8-6.867,2.63A.061.061,0,1,0,399.337,346.57Z" transform="translate(-372.951 -296.239)" fill="#272c2d"/>
      <path id="Tracé_1826" data-name="Tracé 1826" d="M402.637,350.536a.011.011,0,1,0,0-.021A.011.011,0,1,0,402.637,350.536Z" transform="translate(-374.465 -299.241)" fill="#272c2d"/>
      <path id="Tracé_1827" data-name="Tracé 1827" d="M402.9,351.941a.04.04,0,1,0-.028-.076c-1.814.555-3.669,1.066-5.412,1.716-.012,0-.009.024,0,.021A23.625,23.625,0,0,0,402.9,351.941Z" transform="translate(-372.144 -299.846)" fill="#272c2d"/>
      <path id="Tracé_1828" data-name="Tracé 1828" d="M401.638,353.714c-.745.186-1.469.437-2.194.669a.087.087,0,1,0,.06.163c.723-.234,1.459-.454,2.168-.736A.051.051,0,1,0,401.638,353.714Z" transform="translate(-373.01 -300.676)" fill="#272c2d"/>
      <path id="Tracé_1829" data-name="Tracé 1829" d="M362.973,326.737c.014,0,.018-.018,0-.02S362.96,326.735,362.973,326.737Z" transform="translate(-356.667 -288.563)" fill="#272c2d"/>
      <path id="Tracé_1830" data-name="Tracé 1830" d="M363.495,326.825c-.073-.011-.1.1-.023.113a1.638,1.638,0,0,1,1.082.666,1.466,1.466,0,0,1,.227.511,4.08,4.08,0,0,0,.077.569.063.063,0,0,0,.114,0c.189-.368-.131-.91-.346-1.192A1.753,1.753,0,0,0,363.495,326.825Z" transform="translate(-356.874 -288.611)" fill="#272c2d"/>
      <path id="Tracé_1831" data-name="Tracé 1831" d="M367.146,332.025a.079.079,0,0,0-.157-.026.169.169,0,0,0,.009.149.057.057,0,0,0,.079.014A.176.176,0,0,0,367.146,332.025Z" transform="translate(-358.468 -290.904)" fill="#272c2d"/>
      <path id="Tracé_1832" data-name="Tracé 1832" d="M367.419,334.3c-.055-.013-.108-.034-.163-.049a.107.107,0,0,0-.1.036.1.1,0,0,0-.021.1.1.1,0,0,0,.079.067c.057,0,.115,0,.171.009A.086.086,0,0,0,367.419,334.3Z" transform="translate(-358.536 -291.941)" fill="#272c2d"/>
      <path id="Tracé_1833" data-name="Tracé 1833" d="M367.6,336.422c-.072-.037-.134.008-.209-.013-.018-.005-.028.02-.015.03.053.048.049.119.109.16a.319.319,0,0,0,.2.054.071.071,0,0,0,.054-.109A.311.311,0,0,0,367.6,336.422Z" transform="translate(-358.645 -292.911)" fill="#272c2d"/>
      <path id="Tracé_1834" data-name="Tracé 1834" d="M369.969,337.384c-.168.04-.083.31.087.251a.539.539,0,0,0,.249-.141.078.078,0,0,0-.024-.123A.574.574,0,0,0,369.969,337.384Z" transform="translate(-359.769 -293.336)" fill="#272c2d"/>
      <path id="Tracé_1835" data-name="Tracé 1835" d="M370.049,338.085a.162.162,0,0,0-.047.283c.074.048.239.041.22-.09a.076.076,0,0,0-.028-.047A.117.117,0,0,0,370.049,338.085Z" transform="translate(-359.795 -293.661)" fill="#272c2d"/>
      <path id="Tracé_1836" data-name="Tracé 1836" d="M373.149,339.178c.059.082.1.125.209.117a.077.077,0,0,0,.063-.041.2.2,0,0,0-.033-.236C373.289,338.869,373.044,339.032,373.149,339.178Z" transform="translate(-361.226 -294.056)" fill="#272c2d"/>
      <path id="Tracé_1837" data-name="Tracé 1837" d="M377.163,342.162c-.051-.2-.343-.115-.4.038a.106.106,0,0,0,.176.114c.043-.048.117-.042.176-.055A.078.078,0,0,0,377.163,342.162Z" transform="translate(-362.855 -295.441)" fill="#272c2d"/>
      <path id="Tracé_1838" data-name="Tracé 1838" d="M377.685,344.6a.187.187,0,0,0-.11.169.033.033,0,0,0,.019.028.194.194,0,0,0,.2-.036A.1.1,0,0,0,377.685,344.6Z" transform="translate(-363.223 -296.579)" fill="#272c2d"/>
      <path id="Tracé_1839" data-name="Tracé 1839" d="M377.4,345.181l-.121.293a.543.543,0,0,0-.071.263.071.071,0,0,0,.109.051.516.516,0,0,0,.144-.226l.13-.289C377.642,345.149,377.447,345.057,377.4,345.181Z" transform="translate(-363.056 -296.822)" fill="#272c2d"/>
      <path id="Tracé_1840" data-name="Tracé 1840" d="M371.517,344.255a1.16,1.16,0,0,1,.924.245,2.062,2.062,0,0,1,.471.7.074.074,0,0,0,.132-.026c.089-.753-.912-1.186-1.539-1.076C371.4,344.112,371.411,344.273,371.517,344.255Z" transform="translate(-360.467 -296.352)" fill="#272c2d"/>
      <path id="Tracé_1841" data-name="Tracé 1841" d="M399.237,312.8a23.116,23.116,0,0,0,2.727-1.5.052.052,0,0,0-.05-.092,23.054,23.054,0,0,0-2.757,1.444A.085.085,0,0,0,399.237,312.8Z" transform="translate(-372.889 -281.601)" fill="#272c2d"/>
      <path id="Tracé_1842" data-name="Tracé 1842" d="M400.878,313.979a16.766,16.766,0,0,0,2.01-1.168.049.049,0,0,0-.047-.087,17.035,17.035,0,0,0-2.065,1.116C400.673,313.9,400.776,314.036,400.878,313.979Z" transform="translate(-373.615 -282.282)" fill="#272c2d"/>
      <path id="Tracé_1843" data-name="Tracé 1843" d="M402.4,314.179a5.708,5.708,0,0,0-1.407.461c-.13.06-.058.254.072.193.44-.208.9-.389,1.356-.564C402.473,314.25,402.46,314.168,402.4,314.179Z" transform="translate(-373.701 -282.936)" fill="#272c2d"/>
      <path id="Tracé_1844" data-name="Tracé 1844" d="M363.964,294.754c1.237-.743,2.476-1.487,3.743-2.21a.052.052,0,0,0-.048-.092,20.247,20.247,0,0,0-3.789,2.168A.082.082,0,1,0,363.964,294.754Z" transform="translate(-357.055 -273.185)" fill="#272c2d"/>
      <path id="Tracé_1845" data-name="Tracé 1845" d="M374.408,309.39a28.364,28.364,0,0,0,8.013-4.5c.039-.033,0-.1-.046-.069a43.171,43.171,0,0,1-7.971,4.558C374.4,309.383,374.4,309.393,374.408,309.39Z" transform="translate(-361.799 -278.734)" fill="#272c2d"/>
      <path id="Tracé_1846" data-name="Tracé 1846" d="M376.868,310.075a17.026,17.026,0,0,0,3.08-1.767c.028-.019,0-.072-.028-.056a17.163,17.163,0,0,0-3.07,1.788C376.834,310.053,376.846,310.084,376.868,310.075Z" transform="translate(-362.895 -280.275)" fill="#272c2d"/>
      <path id="Tracé_1847" data-name="Tracé 1847" d="M377.18,309.51a8.34,8.34,0,0,0,2.092-1.036.055.055,0,0,0-.048-.1,8.334,8.334,0,0,0-2.053,1.115A.011.011,0,0,0,377.18,309.51Z" transform="translate(-363.04 -280.331)" fill="#272c2d"/>
      <path id="Tracé_1848" data-name="Tracé 1848" d="M397.809,306.108a.1.1,0,0,0,.134-.116c0-.01-.008-.019-.012-.03l.193-.154a.061.061,0,1,0-.072-.1l-.168.126a8.059,8.059,0,0,1-.5-1.128,3.115,3.115,0,0,1-.005-1.163l.263-.258c.009-.009,0-.026-.015-.018l-.229.17c.015-.087.03-.174.049-.262a.052.052,0,0,0-.1-.034,2.017,2.017,0,0,0-.207.485,9.906,9.906,0,0,0-1.372,1.181.048.048,0,0,0,.063.072,9.23,9.23,0,0,0,1.264-1.063,2.706,2.706,0,0,0,0,1.01,2.067,2.067,0,0,0,.553,1.182c-.66.494-1.327.983-1.936,1.525-.044.039.019.1.065.067.691-.462,1.34-.994,1.993-1.516C397.786,306.094,397.8,306.1,397.809,306.108Z" transform="translate(-371.357 -277.974)" fill="#272c2d"/>
      <path id="Tracé_1849" data-name="Tracé 1849" d="M382.459,332.013a8.1,8.1,0,0,0-1.089.372,4.965,4.965,0,0,0-.926.424.019.019,0,0,0,.012.034,6.64,6.64,0,0,0,2.046-.743C382.553,332.071,382.509,332,382.459,332.013Z" transform="translate(-364.507 -290.939)" fill="#272c2d"/>
      <path id="Tracé_1850" data-name="Tracé 1850" d="M381.494,332.987c.02-.016.042-.03.062-.047s0-.028-.013-.019c-.048.033-.094.069-.141.1-.225.09-.447.186-.658.29-.06.029-.009.115.049.1s.1-.029.145-.042l-.318.248c-.006,0,0,.013.006.009l.386-.278a7.416,7.416,0,0,0,1.482-.592c.042-.023.006-.077-.034-.069A6.714,6.714,0,0,0,381.494,332.987Z" transform="translate(-364.589 -291.242)" fill="#272c2d"/>
      <path id="Tracé_1851" data-name="Tracé 1851" d="M360.963,323.906a.005.005,0,0,0-.01,0,1.068,1.068,0,0,0-.144.443,5.38,5.38,0,0,1-.379-.85c.012-.059.023-.118.039-.178s-.077-.079-.1-.02a3.131,3.131,0,0,0-.162.861,3.591,3.591,0,0,1-.213-.412,6.628,6.628,0,0,1-.422-1.737,0,0,0,0,0-.009,0,3.679,3.679,0,0,0,.676,2.652,1.612,1.612,0,0,0,.284.684.05.05,0,0,0,.088-.044c-.025-.1-.05-.2-.073-.292a2.5,2.5,0,0,0,.359.3.054.054,0,0,0,.078-.037,1.287,1.287,0,0,0,.1.16.048.048,0,0,0,.085-.042c-.031-.12-.066-.24-.1-.362a1.53,1.53,0,0,0,.2.176.048.048,0,0,0,.072-.062c-.109-.183-.233-.354-.354-.53C360.956,324.379,360.987,324.142,360.963,323.906Zm-.531.592a2.739,2.739,0,0,1-.017-.931,2.934,2.934,0,0,0,.39,1.12,1.679,1.679,0,0,0,.131.488C360.765,324.947,360.593,324.726,360.432,324.5Z" transform="translate(-355.125 -286.449)" fill="#272c2d"/>
      <path id="Tracé_1852" data-name="Tracé 1852" d="M392.983,314.025c.031-.014.016-.062-.018-.051-.507.166-1,.377-1.493.574-.037.015-.018.074.02.06C391.99,314.419,392.5,314.244,392.983,314.025Z" transform="translate(-369.45 -282.844)" fill="#272c2d"/>
      <path id="Tracé_1853" data-name="Tracé 1853" d="M391.339,315.616c-.012.009,0,.029.012.024a12.99,12.99,0,0,0,2.317-1.186c.03-.018.005-.071-.028-.056A12.992,12.992,0,0,0,391.339,315.616Z" transform="translate(-369.397 -283.033)" fill="#272c2d"/>
      <path id="Tracé_1854" data-name="Tracé 1854" d="M390.3,317.139c-.031.018-.006.071.029.058a23.5,23.5,0,0,0,2.741-1.287c.039-.021.007-.088-.035-.071A23.415,23.415,0,0,0,390.3,317.139Z" transform="translate(-368.929 -283.681)" fill="#272c2d"/>
      <path id="Tracé_1855" data-name="Tracé 1855" d="M401.007,348.646a7.17,7.17,0,0,1-.829.828.034.034,0,0,0,.039.057,3.751,3.751,0,0,0,1.141-1c.149-.05.3-.1.447-.157,0,.023.024.043.042.023s.029-.036.043-.053c.243-.086.487-.17.728-.261-.019.04-.041.079-.059.119a.04.04,0,0,0,.065.044c.067-.075.126-.161.191-.24.347-.132.694-.265,1.04-.408a.01.01,0,1,0-.007-.02c-.317.113-.635.215-.952.325.459-.6.845-1.281,1.243-1.915q.5-.234,1-.491a19.555,19.555,0,0,0-1.4,1.981c-.019.031.028.062.051.035a20.442,20.442,0,0,0,1.431-2.057c.191-.1.383-.2.571-.3.02-.011,0-.037-.02-.028-.163.081-.327.157-.491.236.058-.088.115-.178.174-.265,0,0,0-.009-.008,0-.073.1-.149.2-.224.3q-.5.237-1,.463l.016-.025c.047-.072-.072-.131-.119-.061s-.085.127-.129.19q-.908.4-1.833.756c0-.014.007-.029.009-.043s-.017-.021-.021-.008-.018.044-.026.066c-.2.076-.4.155-.6.227a.046.046,0,1,0,.032.087c.176-.062.349-.13.523-.2a6.192,6.192,0,0,1-.943,1.659q-1.4.461-2.8.888c-.014,0-.007.024.008.022Q399.686,349.082,401.007,348.646Zm1.661-.669-.669.229a8.687,8.687,0,0,0,.539-.753l.538-.177C402.928,347.506,402.79,347.739,402.668,347.978Zm-.536-1.155c.593-.222,1.179-.459,1.755-.719-.238.342-.488.686-.722,1.038h-.007l-.523.161c.1-.157.2-.313.3-.464,0,0,0-.011-.009-.006-.13.166-.267.334-.4.5l-.27.083c-.079.024-.036.14.042.114l.1-.031a7.387,7.387,0,0,0-.518.747c-.137.046-.273.095-.41.14A3.985,3.985,0,0,0,402.132,346.822Z" transform="translate(-372.531 -296.807)" fill="#272c2d"/>
      <path id="Tracé_1856" data-name="Tracé 1856" d="M410.914,347.015a15.907,15.907,0,0,0,.875-1.5,0,0,0,0,0-.008,0,15.787,15.787,0,0,0-.912,1.475C410.856,347.011,410.894,347.041,410.914,347.015Z" transform="translate(-378.162 -296.994)" fill="#272c2d"/>
      <path id="Tracé_1857" data-name="Tracé 1857" d="M412.42,347.311c.184-.181.352-.378.523-.572a.056.056,0,0,0-.084-.074c-.17.194-.343.388-.5.594A.04.04,0,0,0,412.42,347.311Z" transform="translate(-378.828 -297.505)" fill="#272c2d"/>
      <path id="Tracé_1858" data-name="Tracé 1858" d="M389.478,335.759a.414.414,0,0,0-.31.153c-.083.084.019.247.131.2a.419.419,0,0,0,.256-.234A.081.081,0,0,0,389.478,335.759Z" transform="translate(-368.411 -292.62)" fill="#272c2d"/>
      <path id="Tracé_1859" data-name="Tracé 1859" d="M397.971,329.377a.05.05,0,0,0-.073-.035c-.225.109-.448.223-.671.336.035-.108.069-.215.107-.319.028-.078-.088-.138-.116-.059-.056.155-.119.313-.181.473l-.531.271c.055-.174.105-.35.149-.528.124-.076.248-.148.369-.227.037-.024.007-.089-.036-.068l-.3.145c.057-.241.11-.482.159-.711a0,0,0,0,0-.007,0c-.1.25-.209.518-.31.79l-.725.354c.135-.415.26-.831.378-1.246.145-.082.292-.159.436-.244a.066.066,0,0,0-.062-.116l-.313.147c.017-.061.035-.124.053-.184,0-.015-.021-.024-.027-.009-.031.074-.061.151-.093.225a67.276,67.276,0,0,1-7.411,3.112.077.077,0,1,0,.052.144,42.036,42.036,0,0,0,7.261-3.018c-.175.428-.347.862-.506,1.3-.579.28-1.158.556-1.739.82l-.034-.01a.133.133,0,0,0-.166.1c-.991.444-1.99.859-3.017,1.217a.071.071,0,1,0,.048.133c1.025-.334,2.055-.712,3.063-1.148l.01,0,.047.006a.146.146,0,0,0,.168-.106c.516-.228,1.026-.472,1.525-.736-.052.152-.106.3-.155.455-.49.245-.983.484-1.488.7a32.506,32.506,0,0,1-4.213,1.476c-.1.028-.047.17.052.144a30.929,30.929,0,0,0,4.335-1.436c.4-.168.8-.345,1.206-.531-.063.21-.128.42-.182.63a.04.04,0,0,0,.074.026c.108-.244.208-.494.3-.747q.409-.193.809-.4c-.012.058-.029.119-.038.177a.035.035,0,0,0,.066.023c.042-.087.076-.183.113-.275.184-.1.364-.2.543-.3a3,3,0,0,0-.129.481.039.039,0,0,0,.073.025,3.632,3.632,0,0,0,.271-.635q.267-.164.525-.34a4.434,4.434,0,0,0-.2.594.032.032,0,0,0,.059.02,5.264,5.264,0,0,0,.238-.635.042.042,0,0,0-.008-.041l.037-.025a.145.145,0,0,0,.285.02l.012-.047A.133.133,0,0,0,397.971,329.377Zm-1.669.772c-.249.128-.5.254-.747.379.057-.157.113-.314.167-.472q.375-.2.741-.422C396.4,329.8,396.348,329.977,396.3,330.149Z" transform="translate(-368.222 -289.2)" fill="#272c2d"/>
      <path id="Tracé_1860" data-name="Tracé 1860" d="M407.527,330.554c.013.164-.021.281.127.375a.094.094,0,0,0,.11-.021c.115-.121.051-.219.025-.372S407.513,330.382,407.527,330.554Z" transform="translate(-376.663 -290.224)" fill="#272c2d"/>
      <path id="Tracé_1861" data-name="Tracé 1861" d="M385.266,321.07a.122.122,0,0,0,.134.2.191.191,0,0,0,.124-.137.089.089,0,0,0-.084-.127A.19.19,0,0,0,385.266,321.07Z" transform="translate(-366.651 -286.001)" fill="#272c2d"/>
      <path id="Tracé_1862" data-name="Tracé 1862" d="M391.4,317.953l-.058.036a.16.16,0,0,0,.176.266l.056-.039A.158.158,0,0,0,391.4,317.953Z" transform="translate(-369.37 -284.618)" fill="#272c2d"/>
      <path id="Tracé_1863" data-name="Tracé 1863" d="M390.3,311.4l-.046-.012a.133.133,0,0,0-.128.042.123.123,0,0,0-.027.134.133.133,0,0,0,.1.089l.048.007A.133.133,0,0,0,390.3,311.4Z" transform="translate(-368.839 -281.68)" fill="#272c2d"/>
      <path id="Tracé_1864" data-name="Tracé 1864" d="M365.894,313.644a2.109,2.109,0,0,0,.144-.24c.079-.149-.205-.208-.191-.039a2.025,2.025,0,0,0,.04.277A0,0,0,0,0,365.894,313.644Z" transform="translate(-357.96 -282.525)" fill="#272c2d"/>
      <path id="Tracé_1865" data-name="Tracé 1865" d="M367.765,316.51a.138.138,0,0,0,.055-.27A.138.138,0,0,0,367.765,316.51Z" transform="translate(-358.773 -283.86)" fill="#272c2d"/>
      <path id="Tracé_1866" data-name="Tracé 1866" d="M412.233,284.107a.039.039,0,0,0,.069.035c.587-.972,1.078-2,1.587-3.014,0,0,0-.007-.007,0C413.316,282.108,412.725,283.084,412.233,284.107Z" transform="translate(-378.773 -268.104)" fill="#272c2d"/>
      <path id="Tracé_1867" data-name="Tracé 1867" d="M406.24,281.266s0-.007-.006,0a28.917,28.917,0,0,1-6.584,7.949c-.029.025.015.077.046.052A24.891,24.891,0,0,0,406.24,281.266Z" transform="translate(-373.124 -268.165)" fill="#272c2d"/>
      <path id="Tracé_1868" data-name="Tracé 1868" d="M385.438,274.427a21.305,21.305,0,0,0,7.535-8.858h0a25.371,25.371,0,0,1-7.593,8.769A.054.054,0,0,0,385.438,274.427Z" transform="translate(-366.715 -261.124)" fill="#272c2d"/>
      <path id="Tracé_1869" data-name="Tracé 1869" d="M388.726,351.257a.019.019,0,0,0,0,.037,8.031,8.031,0,0,0,2.288-.117.047.047,0,0,0-.006-.094A8.03,8.03,0,0,0,388.726,351.257Z" transform="translate(-368.221 -299.492)" fill="#272c2d"/>
      <path id="Tracé_1870" data-name="Tracé 1870" d="M405.535,335.792c-1.164.579-2.3,1.2-3.509,1.682a27.891,27.891,0,0,1-3.525,1.12c-.044.01-.021.074.022.064a20.83,20.83,0,0,0,7.029-2.841A.016.016,0,0,0,405.535,335.792Z" transform="translate(-372.603 -292.634)" fill="#272c2d"/>
      <path id="Tracé_1871" data-name="Tracé 1871" d="M395.264,339.758c-1.293.37-2.555.909-3.813,1.382a.031.031,0,0,0,.02.06c1.27-.442,2.584-.836,3.814-1.378A.033.033,0,0,0,395.264,339.758Z" transform="translate(-369.44 -294.414)" fill="#272c2d"/>
      <path id="Tracé_1872" data-name="Tracé 1872" d="M400.7,303.441a3.721,3.721,0,0,0,.762-.476c.045-.04-.011-.1-.06-.09a3.744,3.744,0,0,0-.813.4C400.479,303.339,400.59,303.5,400.7,303.441Z" transform="translate(-373.53 -277.863)" fill="#272c2d"/>
      <path id="Tracé_1873" data-name="Tracé 1873" d="M402.9,305.412a2.578,2.578,0,0,0-.16-.719.007.007,0,0,0-.014,0,2.6,2.6,0,0,0,.125.726A.025.025,0,0,0,402.9,305.412Z" transform="translate(-374.508 -278.678)" fill="#272c2d"/>
      <path id="Tracé_1874" data-name="Tracé 1874" d="M386.049,290.62a3.445,3.445,0,0,0,.492,2.24c.343.6,1,1.458,1.719,1.57a.1.1,0,0,0,.087-.173,7.369,7.369,0,0,0-.762-.592,4.1,4.1,0,0,1-.771-.888,5.68,5.68,0,0,1-.744-2.156C386.067,290.61,386.052,290.607,386.049,290.62Z" transform="translate(-367.009 -272.361)" fill="#272c2d"/>
      <path id="Tracé_1875" data-name="Tracé 1875" d="M400.092,323.61c-.771.386-1.483.891-2.225,1.329-.818.482-1.654.932-2.511,1.341-1.6.765-3.255,1.318-4.9,1.964-.051.021-.04.114.02.1a21.759,21.759,0,0,0,5.16-1.852,17.781,17.781,0,0,0,4.551-2.772C400.256,323.659,400.161,323.576,400.092,323.61Z" transform="translate(-368.989 -287.165)" fill="#272c2d"/>
    </g>
  </g>
</svg>
